<svg id="Layer_1" data-name="Layer 1" xmlns="http://www.w3.org/2000/svg" viewBox="0 0 39.96 4.85"><title>foot-brand1</title><path d="M74.23,556.55h4.26v-.5H74.23ZM76.64,553v-.36H76V553a1.92,1.92,0,0,1-1.67,1.67l.25.51a2.52,2.52,0,0,0,1.73-1.31,2.44,2.44,0,0,0,1.72,1.31l.26-.51A1.9,1.9,0,0,1,76.64,553m-4.58,1.1h1.2v1.77h.57v-3.53h-.57v1.29h-1.2Zm-1.29,3h3.18v-.47h-2.6v-1h-.58Zm1.57-4.41H70.21v2.51h.37a11.29,11.29,0,0,0,2-.14l-.05-.48a9.29,9.29,0,0,1-1.79.14v-1.54h1.56Zm-3.41,4.49h.58v-4.85h-.58Zm-1.54-3.48v-.41h1v-.48H65.78v.48h1v.41a2.37,2.37,0,0,1-1.19,2.09l.33.47a2.47,2.47,0,0,0,1.17-1.5,2.3,2.3,0,0,0,1.17,1.38l.32-.47a2.16,2.16,0,0,1-1.2-2m-2.59,3.48h.54v-4.85H64.8Zm-1.47-2.67h.52v2.43h.54v-4.51h-.54V554h-.52Zm-.21-1.67H61.46v.49h1.11v.83h-1.1V556h.33a9.05,9.05,0,0,0,1.73-.13l0-.49a7.89,7.89,0,0,1-1.47.13v-.91h1.1Zm-4.87,2.94h1.9v.88h-1.9Zm-.56,1.35h3v-1.81h-3Zm-.45-2.35h.38a10.54,10.54,0,0,0,2.16-.2l-.06-.5a10.38,10.38,0,0,1-1.91.21v-1.72h-.57Zm3.47-2.43h-.58V555h.58v-1.19h.66v-.49h-.66Zm-7.18,2.15c0-.3.24-.47.59-.47s.59.17.59.47-.24.45-.59.45-.59-.17-.59-.45m-.1,2.61H56.6v-.48H54v-.94h-.57ZM53,554.47c0,.55.47.91,1.14.91s1.14-.36,1.14-.91-.47-.93-1.14-.93-1.15.37-1.14.93m-.24-1.13h2.77v-.48h-1.1v-.54h-.57v.54h-1.1Zm3.67-1h-.58v3.62h.58v-1.6h.65v-.49h-.65ZM50,556.08v-1a2.69,2.69,0,0,0,1.14,0v1Zm-.6-2.22c0-.51.47-.81,1.17-.81s1.17.3,1.17.81-.49.81-1.17.81-1.18-.32-1.17-.81m3.31,2.22h-1v-1.23a1.15,1.15,0,0,0,.58-1c0-.78-.73-1.29-1.73-1.29s-1.74.51-1.73,1.29a1.14,1.14,0,0,0,.59,1v1.22h-1v.49H52.7Zm-8.44-1.5.25.49a2.44,2.44,0,0,0,1.73-1.26A2.45,2.45,0,0,0,48,555.08l.24-.49A1.86,1.86,0,0,1,46.55,553v-.35h-.61V553a1.87,1.87,0,0,1-1.68,1.63m4.14,1.5H46.53V555H46v1.12H44.14v.48H48.4Zm-5.7,1.08h.5a4.85,4.85,0,0,0,.58-2.42,4.79,4.79,0,0,0-.58-2.41h-.5a5.45,5.45,0,0,1,.53,2.41,5.51,5.51,0,0,1-.53,2.42m-3.07-3,.19.43a1.78,1.78,0,0,0,1.34-.76,1.76,1.76,0,0,0,1.34.76l.19-.43c-.78-.09-1.17-.48-1.22-.85h1.07v-.42H39.76v.42h1.07c0,.37-.45.75-1.21.85m-1.1.56a4.79,4.79,0,0,0,.57,2.42h.5a5.57,5.57,0,0,1-.53-2.42,5.51,5.51,0,0,1,.53-2.41h-.5a4.72,4.72,0,0,0-.57,2.41m4.31.09H39.46v.44h1.42v1.29h.53v-1.29h1.44Z" transform="translate(-38.53 -552.31)"/></svg>