<svg id="Layer_1" data-name="Layer 1" xmlns="http://www.w3.org/2000/svg" viewBox="0 0 381.43 151.62"><title>foot-brand2</title><path d="M268,415.35a14,14,0,0,1,11.87,6.54s2.05,3.14,3.48,4a7.85,7.85,0,0,0,4.94,1c1.36-.32,2.23-.61,1.55-3A22.42,22.42,0,0,0,268,407.4c-12.71,0-22.71,10-22.71,23.11s10,23.09,22.71,23.09c10.18,0,18.11-5.94,21.47-15.49,1-2.76.18-3.12.18-3.12s-.82-1.19-4.24-.43a8.17,8.17,0,0,0-4.9,3.57,14.49,14.49,0,0,1-12.5,7.47c-8.08,0-14.53-6.94-14.53-15.08s6.45-15.15,14.53-15.15" transform="translate(-95.9 -407.37)"/><path d="M158,430.48c0-8.27,6.42-15.14,14.48-15.14S187,422.21,187,430.48s-6.4,15.12-14.44,15.12-14.48-7-14.48-15.12m37.07,0c0-13.07-9.93-23.11-22.59-23.11s-22.63,10-22.63,23.11,9.95,23.11,22.63,23.11,22.59-10,22.59-23.11" transform="translate(-95.9 -407.37)"/><path d="M317.22,415.34c8,0,14.48,6.86,14.48,15.15s-6.44,15.1-14.48,15.1-14.46-7-14.46-15.1,6.4-15.15,14.46-15.15m0,38.24c12.68,0,22.61-10,22.61-23.09s-9.93-23.12-22.61-23.12-22.63,10-22.63,23.12,10,23.09,22.63,23.09" transform="translate(-95.9 -407.37)"/><path d="M210.95,434.43l19.4.25c2.59.12,3.28,1.43,2.35,3.74-1.66,4.23-7.42,7.56-12.44,7.52-6.17-.09-9.27-3.26-11.61-5.79s-6.74-2.59-8.13-2-.75,2.69-.18,3.89c3.73,7.38,11.84,11.46,19.5,11.57a22.45,22.45,0,0,0,19.75-11c4.28-7.08,2.42-15.65-7.33-15.76l-22.09-.29c-3.21,0-3.53-2.12-2.6-4.08,2.09-4.35,7.13-7.49,12.94-7.42s9,3.57,10.93,5.49,6.37,2.71,8.24,1.75c1-.48.91-1.84,0-3.51-3.73-7.24-11.55-11.23-19.56-11.34A22.35,22.35,0,0,0,200.93,418c-3.87,6.13-3.66,16.31,10,16.47" transform="translate(-95.9 -407.37)"/><path d="M122.78,415.34c8,0,14.51,6.76,14.51,15.1s-6.51,15.08-14.51,15.08-14.51-6.76-14.51-15.08,6.49-15.1,14.51-15.1m-16,56.09c1.44-.18,1.52-2,1.52-2v-21a22.52,22.52,0,0,0,14.42,5.13c12.68,0,22.63-10,22.63-23.09s-9.95-23.12-22.63-23.12-22.61,10-22.61,23.12v30.58s-.39,4,1.52,6.9c1.32,2,3.16,3.37,5.15,3.46" transform="translate(-95.9 -407.37)"/><path d="M118.08,504.87h14.55v24.35H118.08Zm12.48,32.06H151v-7.7h-8.88V504.87h8.25V497.1H100.14v7.77h8.31v24.35H99.52v7.7h21.34v13.21h-25v7.77h58.89v-7.77H130.56Z" transform="translate(-95.9 -407.37)"/><polygon points="183.43 132.44 183.43 89.72 136.22 89.72 136.22 97.49 173.89 97.49 173.89 109.51 136.22 109.51 136.22 117.14 173.89 117.14 173.89 132.44 183.43 132.44"/><polygon points="160.07 125.05 150.46 125.05 150.46 142.7 131.19 142.7 131.19 150.55 190.08 150.55 190.08 142.7 160.07 142.7 160.07 125.05"/><rect x="65.59" y="142.78" width="58.91" height="7.79"/><path d="M198.21,512.57a19.71,19.71,0,0,1-1.89-7.86v-8.24H186.05v8.24a19.71,19.71,0,0,1-1.89,7.86c-1.75,3.76-4.81,8.38-12.5,12.37a83.22,83.22,0,0,1-9.91,4.24l5.76,6.49s8.63-3.17,13.75-6.69a42,42,0,0,0,9.93-9.59,43.1,43.1,0,0,0,9.93,9.59c5.15,3.44,13.73,6.69,13.73,6.69l5.78-6.49a84.61,84.61,0,0,1-9.91-4.24c-7.68-4-10.75-8.61-12.5-12.37" transform="translate(-95.9 -407.37)"/><rect x="371.79" y="88.19" width="9.65" height="63.44"/><rect x="245.91" y="88.19" width="9.61" height="63.44"/><polygon points="286.16 130.29 276.89 130.29 276.89 151.55 320.01 151.55 320.01 144.11 286.16 144.11 286.16 130.29"/><path d="M369.92,514.3c0-6.42,2.83-11.29,6.61-11.29s6.4,4.65,6.4,11.29-2.67,11.46-6.51,11.46-6.51-4.92-6.51-11.46m22.09-.07c0-10.52-6.79-18.74-15.44-18.74s-15.74,8.58-15.74,18.74c0,10.34,7.06,18.76,15.74,18.76S392,524.75,392,514.23" transform="translate(-95.9 -407.37)"/><polygon points="310.93 88.19 310.93 102.12 307.06 102.12 307.06 88.19 299.6 88.19 299.6 131.66 307.06 131.66 307.06 110.26 310.93 110.26 310.93 133.14 318.7 133.14 318.7 88.19 310.93 88.19"/><path d="M315.15,536.89c-5.53,0-10-7.19-10-16.06s4.48-16.06,10-16.06,10,7.19,10,16.06-4.46,16.06-10,16.06m0-40.42c-11,0-19.86,10.89-19.86,24.35s8.9,24.34,19.86,24.34S335,534.28,335,520.82s-8.9-24.35-19.86-24.35" transform="translate(-95.9 -407.37)"/><path d="M465.17,538.2a27,27,0,0,1-7.35-10.77c-2.12-5.85-1.71-10-1.71-21.59v-8.91h-8.81v8.91c0,11.54-.87,18-1.5,20.93a55,55,0,0,1-1.82,5.76,55,55,0,0,1-1.82-5.76c-.62-2.91-1.5-9.4-1.5-20.93v-8.91h-8.81v8.91c0,11.62.41,15.74-1.71,21.59a27,27,0,0,1-7.35,10.77c-.34.3-1,.84-1,.84l5.06,5.3s.57-.43.89-.73a40.26,40.26,0,0,0,5-6.33,23.92,23.92,0,0,0,3.49-9.09,40.8,40.8,0,0,0,2.73,9,38.1,38.1,0,0,0,4.28,7.17,6.67,6.67,0,0,0,.7.78,6.67,6.67,0,0,0,.7-.78,38.1,38.1,0,0,0,4.28-7.17,40.8,40.8,0,0,0,2.73-9,23.92,23.92,0,0,0,3.49,9.09,40.26,40.26,0,0,0,5,6.33c.32.3.89.73.89.73l5.06-5.3s-.66-.53-1-.84" transform="translate(-95.9 -407.37)"/></svg>