<svg id="Layer_1" data-name="Layer 1" xmlns="http://www.w3.org/2000/svg" viewBox="0 0 39.98 9.41"><defs><style>.cls-1{fill:none;}</style></defs><title>foot-brand3</title><path d="M135.91,554.56a.47.47,0,1,1,0,.94.47.47,0,1,1,0-.94m-1,0a1.14,1.14,0,0,0-.1.44,1.12,1.12,0,0,0,2.24,0,1.09,1.09,0,0,0-.09-.44l0-.07h.35v-.57h-1v-.35h-.73v.35h-1v.57h.36Z" transform="translate(-134.5 -551.17)"/><path d="M135.33,556.53h-.68v1.27a.38.38,0,0,0,.38.37h4v-.62h-3.67Z" transform="translate(-134.5 -551.17)"/><polygon points="3.83 2.66 3.83 4.97 4.5 4.97 4.5 3.86 4.99 3.86 4.99 3.24 4.5 3.24 4.5 2.66 3.83 2.66"/><polygon points="12.55 5.71 12.55 6.39 10.64 6.39 10.64 7.01 15.18 7.01 15.18 6.39 13.27 6.39 13.27 5.71 12.55 5.71"/><polygon points="18.83 3.28 18.83 2.66 15.94 2.66 15.94 3.28 16.76 3.28 15.87 5.26 16.57 5.26 17.38 3.43 18.2 5.26 18.9 5.26 18.01 3.28 18.83 3.28"/><rect x="19.8" y="2.66" width="0.67" height="4.34"/><polygon points="23.48 4.78 24.18 4.78 23.03 2.67 22.32 2.67 21.17 4.78 21.86 4.78 22.68 3.29 23.48 4.78"/><rect x="25.1" y="2.67" width="0.67" height="2.11"/><polygon points="30.29 2.66 30.29 4.93 30.96 4.93 30.96 3.86 31.45 3.86 31.45 3.24 30.96 3.24 30.96 2.66 30.29 2.66"/><path d="M141.78,556.63H139.9v.62h3.77v.92h.67V557a.37.37,0,0,0-.37-.38h-1.52v-.54h2v-.62h-4.63v.62h2Z" transform="translate(-134.5 -551.17)"/><path d="M161.4,556.1h2.32v-.54h-2v-.31h2v-.55h-2v-.3h2v-.56H161v1.89a.38.38,0,0,0,.38.38" transform="translate(-134.5 -551.17)"/><path d="M165.09,556.5h-4v.62h3.72v1.06h.68v-1.3a.38.38,0,0,0-.38-.38" transform="translate(-134.5 -551.17)"/><path d="M156.4,556.44h-.67v1.36a.38.38,0,0,0,.37.37h4.16v-.62H156.4Z" transform="translate(-134.5 -551.17)"/><path d="M145.61,556.62h4V556h-3.67v-.5h3.67v-.59h-3.67v-.48h3.67v-.62h-4.35v2.41a.38.38,0,0,0,.38.38" transform="translate(-134.5 -551.17)"/><path d="M143.67,555.08h.67v-.87a.38.38,0,0,0-.37-.37H139.9v.62h3.77Z" transform="translate(-134.5 -551.17)"/><path d="M172.5,555.24h1.58a.4.4,0,0,0,0-.8H172.5a0,0,0,0,0,0,0v.72a0,0,0,0,0,0,0" transform="translate(-134.5 -551.17)"/><path d="M169.17,554.44h-1.58a.4.4,0,0,0,0,.8h1.58a0,0,0,0,0,0,0v-.72a0,0,0,0,0,0,0" transform="translate(-134.5 -551.17)"/><path d="M170.22,555.2v-2.56a.4.4,0,0,0-.79,0v2.56a0,0,0,0,0,0,0h.72a0,0,0,0,0,0,0" transform="translate(-134.5 -551.17)"/><path d="M171.23,555.2v-3.6a.4.4,0,1,0-.79,0v3.6a0,0,0,0,0,0,0h.72a0,0,0,0,0,0,0" transform="translate(-134.5 -551.17)"/><path d="M172.25,555.2v-2.56a.4.4,0,0,0-.79,0v2.56a0,0,0,0,0,0,0h.72a0,0,0,0,0,0,0" transform="translate(-134.5 -551.17)"/><path d="M173.26,553.58a.4.4,0,1,0-.79,0v.6a0,0,0,0,0,0,0h.72a0,0,0,0,0,0,0Z" transform="translate(-134.5 -551.17)"/><path d="M169.2,553.58a.4.4,0,1,0-.79,0v.6a0,0,0,0,0,0,0h.72a0,0,0,0,0,0,0Z" transform="translate(-134.5 -551.17)"/><path d="M173.66,555.46H168a0,0,0,0,0,0,0v.24a.51.51,0,0,0,.5.51h4.7a.51.51,0,0,0,.51-.51v-.24a0,0,0,0,0,0,0" transform="translate(-134.5 -551.17)"/><path d="M172.57,556.48H169.1a0,0,0,0,0,0,0v.25a.5.5,0,0,0,.51.5h2.52a.51.51,0,0,0,.51-.5v-.25a0,0,0,0,0,0,0" transform="translate(-134.5 -551.17)"/><path d="M171.43,557.49h-1.19a0,0,0,0,0,0,0v.25a.51.51,0,0,0,.51.51H171a.51.51,0,0,0,.51-.51v-.25a0,0,0,0,0,0,0" transform="translate(-134.5 -551.17)"/><rect class="cls-1" width="39.94" height="9.41"/></svg>