<svg id="Layer_1" data-name="Layer 1" xmlns="http://www.w3.org/2000/svg" viewBox="0 0 1051 880"><defs><style>.cls-1,.cls-4{fill:none;}.cls-2,.cls-6{fill:#d7d6d5;}.cls-2,.cls-3{opacity:0.5;}.cls-3{fill:#c3c7cb;}.cls-4{stroke:#1d1d1b;stroke-miterlimit:10;}.cls-5{fill:#1d1d1b;}.cls-7{fill:#2b2825;}</style></defs><title>location-map-zoom1</title><rect class="cls-1" width="1051" height="880"/><polygon class="cls-2" points="1048.12 247.33 975.2 282.78 974.67 283.04 953.25 313.29 918.52 405.27 863.39 465.2 835.06 473.1 824.27 472.2 615.58 391.33 551.64 473.33 463.84 543.48 414.54 547.7 312.87 507.32 299.67 480.92 275.92 452.31 229.89 407.74 214.05 406.75 175.92 390.07 151.13 383.82 98.58 332.67 61.23 308.7 0 262.7 0 268.49 58.52 312.45 95.69 336.31 148.8 388 174.24 394.38 212.94 411.31 227.9 412.25 272.44 455.37 295.77 483.46 309.52 510.96 413.34 552.2 413.85 552.4 465.63 547.97 554.74 476.78 554.95 476.61 617.11 396.89 822.91 476.63 823.22 476.75 835.51 477.78 865.9 469.31 922.23 408.07 922.53 407.74 957.36 315.48 977.75 286.68 1050.14 251.49 1048.12 247.33"/><path class="cls-3" d="M1009.86,273.3l-31.1,18.88-19.3,26.49s-15.37,40.77-15.88,41.85S924.2,411,924.2,411L889,454.87l-28.42,22.3-7.07.74s-20.45,5.21-33.48,3.35-17.43-.72-26.74-4.44-25.69-20.48-34.25-23.08-95.3-33.88-99.4-35-17.13-7.45-22-8.19S616.47,400.87,612,402s-45,55.47-45,55.47L553.29,475l-36.22,28.65L488.78,526S469,549.41,452.3,555s-50.63,5.21-74.83-5.21-50.26-26.43-58.82-29-16.75-10.8-20.1-22-.82-16.6-.82-16.6l-28.22-34L228.9,410l-15.4-1L175,392.19l-25-6.28L97.14,334.49l-13.77,2.63L62.46,321.81,29.31,305.42,0,280.24v48.94l33.9,31.33,18.36,4.65,44.88,40.11s64.41,42.51,89.35,54.79,67,57.7,70.36,64.41,10.42,14.52,11.91,16a8.09,8.09,0,0,0,3.94,1.87l115.94,62.16s12.66,0,15.64.74,4.1,1.86,7.82,3,5.58,0,8.56-1.12,10.42-2.61,14.52-3.35a33.38,33.38,0,0,1,8.19-.74c3.35,0,4.1.74,6.7.37l7.82-1.12s27.55-17.87,30.16-22.71,12.66-10.05,19.36-13.77,18.61-7.07,20.85-14.52S549.46,530.43,551.7,526s27.92-34.62,37.6-42.44,27.92-25.69,30.53-28.29,15.33-6.91,21.07-6.25,67.17,24.12,67.17,24.12L745.81,486,797,534.9l5.21,4.1,72.13-3,58-63.75L938,449.13l26.32-42.62,22.12-65.31,22.95-26.81,25-17.37,10.2-1.14V256.49Z"/><polygon class="cls-2" points="946.13 696.1 945.99 695.63 922.3 667.45 921.97 667.06 814.83 615.88 803.82 537.37 747.04 484.02 640.91 446.53 623.67 452.28 521.06 570.79 435.34 611.27 406.12 611.27 273.16 539.98 223.19 545.16 185.83 523.49 166.13 491.8 157.88 443.71 90.66 399.35 57.7 366.9 35.14 358.5 0 326.03 0 332.33 32.67 362.52 55.16 370.89 87.74 402.96 153.66 446.47 161.73 493.48 182.51 526.91 222.17 549.92 272.23 544.73 404.95 615.9 436.37 615.9 523.48 574.76 523.92 574.56 626.34 456.27 640.87 451.42 744.59 488.06 799.47 539.63 810.6 618.99 919.08 670.8 941.82 697.85 963.35 772.71 967.79 771.43 946.13 696.1"/><path class="cls-4" d="M560.53,427.21"/><path class="cls-4" d="M493,427.21"/><circle class="cls-5" cx="526.52" cy="440.33" r="2.87"/><polygon class="cls-6" points="665.68 757.93 583.91 524.05 474.15 328.61 404.23 101.03 408.65 99.67 478.42 326.77 588.14 522.14 588.21 522.34 670.04 756.4 665.68 757.93"/><polygon class="cls-6" points="801.74 541.05 801.55 535.95 866.48 533.53 873.23 533.45 930.03 471.01 935.64 447.88 963.35 417.94 988.68 348.8 1002.94 317.83 1033.39 294.52 1048.93 293.32 1049.33 298.42 1035.29 299.5 1007.05 321.12 993.36 350.84 967.79 420.66 940.29 450.38 934.69 473.48 875.52 538.53 866.6 538.64 801.74 541.05"/><circle class="cls-7" cx="526.58" cy="452" r="2.87"/><circle class="cls-7" cx="703.24" cy="308.29" r="2.87"/><circle class="cls-7" cx="365.54" cy="259.36" r="2.87"/><circle class="cls-7" cx="246.63" cy="293" r="2.87"/><circle class="cls-7" cx="528.96" cy="631.04" r="2.87"/><circle class="cls-7" cx="334.62" cy="602.84" r="2.87"/><circle class="cls-7" cx="228.29" cy="538.63" r="2.87"/><circle class="cls-7" cx="717.05" cy="654.42" r="2.87"/><circle class="cls-7" cx="853.8" cy="676.6" r="2.87"/><circle class="cls-7" cx="474.26" cy="205.88" r="2.87"/><circle class="cls-7" cx="935.79" cy="495.88" r="2.87"/><path class="cls-7" d="M254.43,289.65l1.89,3.36h.08l1.89-3.36h1l-2.48,4.26v3h-.86v-3l-2.48-4.26Z"/><path class="cls-7" d="M262.3,297c-1.76,0-3-1.43-3-3.71s1.27-3.71,3-3.71,3,1.43,3,3.71S264.05,297,262.3,297Zm0-.84c1.24,0,2.21-1,2.21-2.87s-1-2.87-2.21-2.87-2.21,1-2.21,2.87S261.06,296.14,262.3,296.14Z"/><path class="cls-7" d="M271.69,296.88h-.82l-3.71-5.63h-.07v5.63h-.85v-7.23h.82l3.72,5.64h.07v-5.64h.84Z"/><path class="cls-7" d="M275.09,290.35c-.91,0-1.5.5-1.5,1.19s.8,1,1.32,1.19l.69.2c.73.2,1.94.64,1.94,2,0,1.18-.9,2.1-2.49,2.1a2.2,2.2,0,0,1-2.48-2h.88c.07.81.78,1.19,1.6,1.19s1.66-.51,1.66-1.3-.64-1-1.36-1.19l-.84-.25c-1.08-.32-1.75-.9-1.75-1.88a2.38,2.38,0,0,1,4.69-.11h-.83A1.36,1.36,0,0,0,275.09,290.35Z"/><path class="cls-7" d="M278.42,289.65h4.16v.8h-3.31v2.41h3.09v.79h-3.09v2.43h3.36v.8h-4.21Z"/><path class="cls-7" d="M284.45,296.88h-.85v-7.23h.85Z"/><path class="cls-7" d="M293.07,289.65v4.78a2.68,2.68,0,0,1-5.35,0v-4.78h.85v4.71a1.82,1.82,0,0,0,3.64,0v-4.71Z"/><path class="cls-7" d="M299.69,296.88h-.82l-3.71-5.63h-.07v5.63h-.85v-7.23h.82l3.72,5.64h.07v-5.64h.84Z"/><path class="cls-7" d="M301.72,296.88h-.85v-7.23h.85Z"/><path class="cls-7" d="M305.23,295.72h.08l2-6.06h.9l-2.51,7.23h-.9l-2.51-7.23h.91Z"/><path class="cls-7" d="M308.82,289.65H313v.8h-3.31v2.41h3.09v.79h-3.09v2.43H313v.8h-4.21Z"/><path class="cls-7" d="M314,289.65h2.33a2.08,2.08,0,0,1,2.34,2.22,2,2,0,0,1-1.28,2l1.55,3h-1l-1.44-2.81h-1.66v2.81H314Zm2.31,3.61c1.09,0,1.52-.52,1.52-1.38s-.43-1.43-1.53-1.43h-1.45v2.81Z"/><path class="cls-7" d="M321.78,290.35c-.91,0-1.5.5-1.5,1.19s.8,1,1.32,1.19l.69.2c.73.2,1.94.64,1.94,2,0,1.18-.9,2.1-2.49,2.1a2.2,2.2,0,0,1-2.48-2h.88c.07.81.78,1.19,1.6,1.19s1.66-.51,1.66-1.3-.64-1-1.36-1.19l-.84-.25c-1.08-.32-1.75-.9-1.75-1.88a2.38,2.38,0,0,1,4.69-.11h-.83A1.36,1.36,0,0,0,321.78,290.35Z"/><path class="cls-7" d="M326,296.88h-.85v-7.23H326Z"/><path class="cls-7" d="M326.76,289.65h5.17v.8h-2.15v6.43h-.86v-6.43h-2.16Z"/><path class="cls-7" d="M333.12,289.65,335,293h.08l1.89-3.36h1l-2.48,4.26v3h-.86v-3l-2.48-4.26Z"/><path class="cls-7" d="M256.26,300.57c-.91,0-1.5.5-1.5,1.19s.8,1,1.32,1.19l.69.2c.73.2,1.94.64,1.94,2,0,1.18-.9,2.1-2.49,2.1a2.2,2.2,0,0,1-2.48-2h.88c.07.81.78,1.19,1.6,1.19s1.66-.51,1.66-1.3-.64-1-1.36-1.19l-.84-.25c-1.08-.32-1.75-.9-1.75-1.88a2.38,2.38,0,0,1,4.69-.11h-.83A1.36,1.36,0,0,0,256.26,300.57Z"/><path class="cls-7" d="M259.59,299.88h4.16v.8h-3.31v2.41h3.09v.79h-3.09v2.43h3.36v.8h-4.21Z"/><path class="cls-7" d="M267.1,305.94h.08l2-6.06h.9l-2.51,7.23h-.9l-2.51-7.23h.91Z"/><path class="cls-7" d="M270.69,299.88h4.16v.8h-3.31v2.41h3.09v.79h-3.09v2.43h3.36v.8h-4.21Z"/><path class="cls-7" d="M275.86,299.88h2.33a2.08,2.08,0,0,1,2.34,2.22,2,2,0,0,1-1.28,2l1.55,3h-1l-1.44-2.81h-1.66v2.81h-.85Zm2.31,3.61c1.09,0,1.52-.52,1.52-1.38s-.43-1.43-1.53-1.43h-1.45v2.81Z"/><path class="cls-7" d="M280.83,307.1l2.51-7.23h.9l2.51,7.23h-.9l-.68-2h-2.76l-.68,2Zm4.08-2.82L283.82,301h-.05l-1.09,3.24Z"/><path class="cls-7" d="M292.8,307.1H292l-3.71-5.63h-.07v5.63h-.85v-7.23h.82l3.72,5.64H292v-5.64h.84Z"/><path class="cls-7" d="M296.74,300.62c-1.24,0-2.21,1-2.21,2.87s1,2.87,2.21,2.87a1.87,1.87,0,0,0,1.91-1.52h.86a2.72,2.72,0,0,1-2.77,2.36c-1.76,0-3-1.43-3-3.71s1.27-3.71,3-3.71a2.72,2.72,0,0,1,2.77,2.37h-.86A1.87,1.87,0,0,0,296.74,300.62Z"/><path class="cls-7" d="M300.37,299.88h4.16v.8h-3.31v2.41h3.09v.79h-3.09v2.43h3.36v.8h-4.21Z"/><path class="cls-7" d="M307.63,299.88h.85v3.21h3.63v-3.21H313v7.23h-.86v-3.23h-3.63v3.23h-.85Z"/><path class="cls-7" d="M316.92,307.2c-1.76,0-3-1.43-3-3.71s1.27-3.71,3-3.71,3,1.43,3,3.71S318.68,307.2,316.92,307.2Zm0-.84c1.24,0,2.21-1,2.21-2.87s-1-2.87-2.21-2.87-2.21,1-2.21,2.87S315.68,306.36,316.92,306.36Z"/><path class="cls-7" d="M323.09,300.57c-.91,0-1.5.5-1.5,1.19s.8,1,1.32,1.19l.69.2c.73.2,1.94.64,1.94,2,0,1.18-.9,2.1-2.49,2.1a2.2,2.2,0,0,1-2.48-2h.88c.07.81.78,1.19,1.6,1.19s1.66-.51,1.66-1.3-.64-1-1.36-1.19l-.84-.25c-1.08-.32-1.75-.9-1.75-1.88a2.38,2.38,0,0,1,4.69-.11h-.83A1.36,1.36,0,0,0,323.09,300.57Z"/><path class="cls-7" d="M326.42,299.88h2.33a2.3,2.3,0,1,1,0,4.6h-1.5v2.63h-.85Zm2.31,3.8a1.5,1.5,0,1,0,0-3h-1.45v3Z"/><path class="cls-7" d="M332.8,307.1h-.85v-7.23h.85Z"/><path class="cls-7" d="M333.6,299.88h5.17v.8h-2.15v6.43h-.86v-6.43H333.6Z"/><path class="cls-7" d="M338.18,307.1l2.51-7.23h.9l2.51,7.23h-.9l-.68-2h-2.76l-.68,2Zm4.08-2.82L341.17,301h-.05L340,304.28Z"/><path class="cls-7" d="M344.69,299.88h.85v6.43h3.18v.8h-4Z"/><path class="cls-7" d="M260.61,317.17h-.74v-2.4h-2.18a2.22,2.22,0,1,1,0-2.77h2.19v-1.39h.74Zm-4.67-2.25a1.53,1.53,0,1,0-1.47-1.52A1.45,1.45,0,0,0,255.94,314.92Zm-.74,1.57h.74v2.15h4.9v.65H255.2Zm2.92-3.09a2.45,2.45,0,0,1-.11.73h1.85v-1.47H258A2.42,2.42,0,0,1,258.12,313.39Z"/><path class="cls-7" d="M266,316.76l-.43.61a4.33,4.33,0,0,1-1.69-2.54,4.59,4.59,0,0,1-1.77,2.73l-.48-.59a4.56,4.56,0,0,0,1.88-3.81v-1.72h.72v1.69A4.38,4.38,0,0,0,266,316.76Zm-.93-3h1.43v-3h.7V319h-.7v-4.57H265Zm3.16-3.18h.72v8.87h-.72Z"/><path class="cls-7" d="M270,311.69h3.16v.64h-2.41v4.28a13,13,0,0,0,2.9-.25l.07.66a13.92,13.92,0,0,1-3.16.27H270Zm6.89,7.78h-.71v-4.66H275V319h-.69V310.8H275v3.37h1.23v-3.56h.71Z"/><path class="cls-7" d="M282.06,316.76l-.43.61a4.33,4.33,0,0,1-1.69-2.54,4.59,4.59,0,0,1-1.77,2.73l-.48-.59a4.56,4.56,0,0,0,1.88-3.81v-1.72h.72v1.69A4.38,4.38,0,0,0,282.06,316.76Zm-.93-3h1.43v-3h.7V319h-.7v-4.57h-1.43Zm3.16-3.18H285v8.87h-.72Z"/><path class="cls-7" d="M293.56,318.29h-7.72v-.66h7.72Zm-6.81-7.05h.74v1.66h4.38v-1.66h.74v4.62h-5.86Zm5.12,4v-1.7H287.5v1.7Z"/><path class="cls-7" d="M294.25,311.19h3.82v2.53H295v1.39a20.14,20.14,0,0,0,3.9-.3l.07.66a21.6,21.6,0,0,1-4,.29h-.66v-2.65h3.07v-1.26h-3.09Zm1,5.45H296v2h4.87v.65h-5.62Zm5.22-3.3h1.27V314h-1.27v3.14h-.74v-6.53h.74Z"/><path class="cls-7" d="M302,317.61h7.72v.66H302Zm7.32-2.54-.35.66a4.71,4.71,0,0,1-3.16-2.57,4.73,4.73,0,0,1-3.15,2.57l-.34-.66c1.46-.3,3.1-1.64,3.1-3.16v-.68h.78v.68C306.16,313.43,307.81,314.78,309.27,315.07Z"/><path class="cls-7" d="M311.17,312.58h2.35v-1.43h.74v.91h2v-1.45H317V316h-.74v-1.45h-2v.79h-3.83v-4.17h.74Zm2.35,2.1v-1.48h-2.35v1.48Zm.68,1.47c1.75,0,2.82.61,2.82,1.67s-1.07,1.64-2.82,1.64-2.83-.6-2.82-1.64S312.44,316.16,314.2,316.15Zm0,2.68c1.29,0,2.09-.38,2.09-1s-.8-1-2.09-1.05-2.09.39-2.09,1.05S312.9,318.83,314.2,318.83Zm2.05-5V312.7h-2v1.18Z"/><path class="cls-7" d="M323.5,314.46l.05.57a23,23,0,0,1-2.32.26V317h-.74v-1.72c-.85,0-1.67,0-2.37,0l-.1-.64A45.41,45.41,0,0,0,323.5,314.46ZM320.78,311c1.23,0,2.08.61,2.09,1.55s-.85,1.54-2.09,1.54-2.09-.59-2.09-1.54S319.54,311,320.78,311Zm-1.56,5.72H320v1.94h5.24v.65h-6Zm1.56-3.22c.8,0,1.37-.37,1.37-1s-.58-1-1.37-1-1.39.38-1.38,1S320,313.47,320.78,313.47Zm4.22,3.88h-.75v-.92h-1.74v-.57h1.74v-5.24H325Z"/><path class="cls-7" d="M709.83,304.26h.85v3.21h3.63v-3.21h.86v7.23h-.86v-3.23h-3.63v3.23h-.85Z"/><path class="cls-7" d="M715.76,311.49l2.51-7.23h.9l2.51,7.23h-.9l-.68-2h-2.76l-.68,2Zm4.08-2.82-1.09-3.24h-.05l-1.09,3.24Z"/><path class="cls-7" d="M727.72,311.49h-.82l-3.71-5.63h-.07v5.63h-.85v-7.23h.82l3.72,5.64h.07v-5.64h.84Z"/><path class="cls-7" d="M729.29,304.26l1.89,3.36h.08l1.89-3.36h1l-2.48,4.26v3h-.86v-3l-2.48-4.26Z"/><path class="cls-7" d="M733.43,311.49l2.51-7.23h.9l2.51,7.23h-.9l-.68-2H735l-.68,2Zm4.08-2.82-1.09-3.24h-.05l-1.09,3.24Z"/><path class="cls-7" d="M745.39,311.49h-.82l-3.71-5.63h-.07v5.63h-.85v-7.23h.82l3.72,5.64h.07v-5.64h.84Z"/><path class="cls-7" d="M749.31,305c-1.21,0-2.18,1-2.18,2.87s1,2.87,2.23,2.87a1.94,1.94,0,0,0,2-2.09h-1.8v-.79h2.63v.78a2.73,2.73,0,0,1-2.81,2.94c-1.83,0-3.06-1.43-3.06-3.71s1.25-3.71,3-3.71a2.8,2.8,0,0,1,2.82,2.36h-.89A2,2,0,0,0,749.31,305Z"/><path class="cls-7" d="M760.55,304.26V309a2.68,2.68,0,0,1-5.35,0v-4.78h.85V309a1.82,1.82,0,0,0,3.64,0v-4.71Z"/><path class="cls-7" d="M767.18,311.49h-.82l-3.71-5.63h-.07v5.63h-.85v-7.23h.82l3.72,5.64h.07v-5.64h.84Z"/><path class="cls-7" d="M769.21,311.49h-.85v-7.23h.85Z"/><path class="cls-7" d="M772.72,310.32h.08l2-6.06h.9l-2.51,7.23h-.9l-2.51-7.23h.9Z"/><path class="cls-7" d="M776.31,304.26h4.16v.8h-3.31v2.41h3.09v.79h-3.09v2.43h3.36v.8h-4.21Z"/><path class="cls-7" d="M781.48,304.26h2.33a2.08,2.08,0,0,1,2.34,2.22,2,2,0,0,1-1.28,2l1.55,3h-1L784,308.68h-1.66v2.81h-.85Zm2.31,3.61c1.09,0,1.52-.52,1.52-1.38s-.43-1.43-1.53-1.43h-1.45v2.81Z"/><path class="cls-7" d="M789.27,305c-.91,0-1.5.5-1.5,1.19s.8,1,1.32,1.19l.69.2c.73.2,1.94.64,1.94,2,0,1.18-.9,2.1-2.49,2.1a2.2,2.2,0,0,1-2.48-2h.88c.07.81.78,1.19,1.6,1.19s1.66-.52,1.66-1.3-.64-1-1.36-1.19l-.84-.25c-1.08-.32-1.75-.9-1.75-1.88a2.38,2.38,0,0,1,4.69-.11h-.83A1.36,1.36,0,0,0,789.27,305Z"/><path class="cls-7" d="M793.45,311.49h-.85v-7.23h.85Z"/><path class="cls-7" d="M794.25,304.26h5.17v.8h-2.15v6.43h-.86v-6.43h-2.16Z"/><path class="cls-7" d="M800.61,304.26l1.89,3.36h.08l1.89-3.36h1L803,308.52v3h-.86v-3l-2.48-4.26Z"/><path class="cls-7" d="M710.86,314.48l2.31,5.95h.08l2.31-5.95h1v7.23h-.8v-5.46h-.07l-2.13,5.46h-.76l-2.13-5.46h-.06v5.46h-.81v-7.23Z"/><path class="cls-7" d="M717.77,314.48h4.16v.8h-3.31v2.41h3.09v.79h-3.09v2.43H722v.8h-4.21Z"/><path class="cls-7" d="M722.94,321.71v-7.23h2.22c2,0,3.18,1.36,3.18,3.6s-1.18,3.63-3.27,3.63Zm2.08-.8c1.68,0,2.49-1.07,2.49-2.83s-.81-2.8-2.41-2.8h-1.31v5.63Z"/><path class="cls-7" d="M730.1,321.71h-.85v-7.23h.85Z"/><path class="cls-7" d="M734,315.22c-1.24,0-2.21,1-2.21,2.87s1,2.87,2.21,2.87a1.87,1.87,0,0,0,1.91-1.52h.86a2.72,2.72,0,0,1-2.77,2.36c-1.76,0-3-1.43-3-3.71s1.27-3.71,3-3.71a2.72,2.72,0,0,1,2.77,2.37H736A1.87,1.87,0,0,0,734,315.22Z"/><path class="cls-7" d="M737.07,321.71l2.51-7.23h.9l2.51,7.23h-.9l-.68-2h-2.76l-.68,2Zm4.08-2.82-1.09-3.24H740l-1.09,3.24Z"/><path class="cls-7" d="M743.58,314.48h.85v6.43h3.19v.8h-4Z"/><path class="cls-7" d="M753.28,315.22c-1.24,0-2.21,1-2.21,2.87s1,2.87,2.21,2.87a1.87,1.87,0,0,0,1.91-1.52h.86a2.72,2.72,0,0,1-2.77,2.36c-1.76,0-3-1.43-3-3.71s1.27-3.71,3-3.71a2.72,2.72,0,0,1,2.77,2.37h-.86A1.87,1.87,0,0,0,753.28,315.22Z"/><path class="cls-7" d="M756.91,314.48h4.16v.8h-3.31v2.41h3.09v.79h-3.09v2.43h3.36v.8h-4.21Z"/><path class="cls-7" d="M767.53,321.71h-.82L763,316.08h-.07v5.63h-.85v-7.23h.82l3.72,5.64h.07v-5.64h.84Z"/><path class="cls-7" d="M768.33,314.48h5.17v.8h-2.15v6.43h-.86v-6.43h-2.16Z"/><path class="cls-7" d="M774.3,314.48h4.16v.8h-3.31v2.41h3.09v.79h-3.09v2.43h3.36v.8H774.3Z"/><path class="cls-7" d="M779.47,314.48h2.33a2.08,2.08,0,0,1,2.34,2.22,2,2,0,0,1-1.28,2l1.55,3h-1L782,318.9h-1.66v2.81h-.85Zm2.31,3.61c1.09,0,1.52-.52,1.52-1.38s-.43-1.43-1.53-1.43h-1.45v2.81Z"/><path class="cls-7" d="M709.44,326.31h2.15v-1.09h.74v1.09h2.14v.64h-5Zm2.51,1.13c1.2,0,2,.65,2,1.66s-.83,1.64-2,1.64-2-.64-2-1.64S710.73,327.43,711.95,327.43Zm0,2.67c.78,0,1.31-.4,1.32-1s-.54-1-1.32-1-1.33.41-1.32,1S711.15,330.12,711.95,330.11Zm-1.22,1.22h.74v1.9h4.93v.65h-5.67Zm5.28-3.19h1.27v.66H716v3.06h-.74v-6.65H716Z"/><path class="cls-7" d="M719.84,325.75a2.09,2.09,0,1,1-2.21,2.08A2.06,2.06,0,0,1,719.84,325.75Zm0,3.51a1.42,1.42,0,1,0,0-2.84,1.42,1.42,0,1,0,0,2.84Zm1.52,1.49c1.72,0,2.78.61,2.78,1.67s-1.06,1.65-2.78,1.65-2.8-.61-2.8-1.65S719.64,330.75,721.36,330.74Zm0,2.68c1.27,0,2.05-.37,2.05-1s-.78-1-2.05-1-2.06.38-2.05,1S720.09,333.43,721.36,333.43Zm3.95-6.22h-1.25v1.23h1.25v.66h-1.25v1.38h-.74v-5.26h.74v1.34h1.25Z"/><path class="cls-7" d="M725.83,326.3H729v.64h-2.41v4.28a13,13,0,0,0,2.9-.25l.07.66a13.92,13.92,0,0,1-3.17.27h-.54Zm6.89,7.78H732v-4.66h-1.23v4.19h-.69v-8.21h.69v3.37H732v-3.56h.71Z"/><path class="cls-7" d="M738.62,326.8h-5v-.63h2.15v-1h.74v1h2.14Zm-2.51.47c1.21,0,2,.63,2,1.6s-.82,1.6-2,1.6-2-.63-2-1.6S734.9,327.27,736.12,327.27Zm-1.46,4h5.52v2.84h-.74v-2.19h-4.77Zm1.46-1.4c.78,0,1.31-.38,1.32-1s-.54-1-1.32-1-1.33.4-1.32,1S735.32,329.84,736.12,329.84Zm3.31-4.63h.74v2.46h1.27v.66h-1.27v2.42h-.74Z"/><path class="cls-7" d="M741.64,332.17h1.9v-2.92h.74v2.92h1.36v-2.92h.73v2.92h2.94v.66h-7.68Zm6.77-5.07a20.74,20.74,0,0,1-.3,3.93l-.73-.09a19,19,0,0,0,.29-3.84v-.34h-5.23v-.65h6Z"/><path class="cls-7" d="M750.86,327.19h2.35v-1.43h.74v.91h2v-1.45h.74v5.38h-.74v-1.45h-2v.79h-3.83v-4.17h.74Zm2.35,2.1v-1.48h-2.35v1.48Zm.68,1.47c1.75,0,2.82.61,2.82,1.67s-1.07,1.64-2.82,1.64-2.83-.6-2.82-1.64S752.12,330.77,753.88,330.76Zm0,2.68c1.29,0,2.09-.38,2.09-1s-.8-1-2.09-1.05-2.09.39-2.09,1.05S752.59,333.44,753.88,333.44Zm2.05-5v-1.18h-2v1.18Z"/><path class="cls-7" d="M763.18,329.06l.05.57a23,23,0,0,1-2.32.26v1.75h-.74v-1.72c-.85,0-1.67,0-2.37,0l-.1-.64A45.44,45.44,0,0,0,763.18,329.06Zm-2.72-3.49c1.23,0,2.08.61,2.09,1.55s-.85,1.54-2.09,1.54-2.09-.59-2.09-1.54S759.22,325.58,760.47,325.58Zm-1.55,5.72h.74v1.94h5.24v.65h-6Zm1.55-3.22c.8,0,1.37-.37,1.37-1s-.58-1-1.37-1-1.39.38-1.38,1S759.64,328.08,760.47,328.08Zm4.22,3.88h-.75V331h-1.74v-.57h1.74v-5.24h.75Z"/><path class="cls-7" d="M535.63,448.75c-.91,0-1.5.5-1.5,1.19s.8,1,1.32,1.19l.69.2c.73.2,1.94.64,1.94,2,0,1.18-.9,2.1-2.49,2.1a2.2,2.2,0,0,1-2.48-2H534c.07.81.78,1.19,1.6,1.19s1.66-.51,1.66-1.3-.64-1-1.36-1.19l-.84-.25c-1.08-.32-1.75-.9-1.75-1.88a2.38,2.38,0,0,1,4.69-.11h-.83A1.36,1.36,0,0,0,535.63,448.75Z"/><path class="cls-7" d="M541.73,455.38c-1.76,0-3-1.43-3-3.71s1.27-3.71,3-3.71,3,1.43,3,3.71S543.48,455.38,541.73,455.38Zm0-.84c1.24,0,2.21-1,2.21-2.87s-1-2.87-2.21-2.87-2.21,1-2.21,2.87S540.49,454.54,541.73,454.54Z"/><path class="cls-7" d="M548.44,455.38c-1.76,0-3-1.43-3-3.71s1.27-3.71,3-3.71,3,1.43,3,3.71S550.2,455.38,548.44,455.38Zm0-.84c1.24,0,2.21-1,2.21-2.87s-1-2.87-2.21-2.87-2.21,1-2.21,2.87S547.2,454.54,548.44,454.54Z"/><path class="cls-7" d="M557.84,455.28H557l-3.72-5.63h-.07v5.63h-.85v-7.23h.82l3.72,5.64H557v-5.64h.84Z"/><path class="cls-7" d="M561.78,448.8c-1.24,0-2.21,1-2.21,2.87s1,2.87,2.21,2.87a1.87,1.87,0,0,0,1.91-1.52h.86a2.72,2.72,0,0,1-2.77,2.36c-1.76,0-3-1.43-3-3.71s1.27-3.71,3-3.71a2.72,2.72,0,0,1,2.77,2.37h-.86A1.87,1.87,0,0,0,561.78,448.8Z"/><path class="cls-7" d="M565.41,448.05h.85v3.21h3.63v-3.21h.86v7.23h-.86v-3.23h-3.63v3.23h-.85Z"/><path class="cls-7" d="M577.28,448.05v4.78a2.68,2.68,0,0,1-5.35,0v-4.78h.85v4.71a1.82,1.82,0,0,0,3.64,0v-4.71Z"/><path class="cls-7" d="M583.9,455.28h-.82l-3.72-5.63h-.07v5.63h-.85v-7.23h.82l3.72,5.64h.07v-5.64h.84Z"/><path class="cls-7" d="M585.08,448.05h.85v3.21h3.63v-3.21h.86v7.23h-.86v-3.23h-3.63v3.23h-.85Z"/><path class="cls-7" d="M592,448.05l1.89,3.36H594l1.89-3.36h1l-2.48,4.26v3h-.86v-3L591,448.05Z"/><path class="cls-7" d="M596.13,455.28l2.51-7.23h.9l2.51,7.23h-.9l-.68-2h-2.76l-.68,2Zm4.08-2.82-1.09-3.24h-.05L598,452.46Z"/><path class="cls-7" d="M608.09,455.28h-.82l-3.72-5.63h-.07v5.63h-.85v-7.23h.82l3.72,5.64h.07v-5.64h.84Z"/><path class="cls-7" d="M612,448.8c-1.21,0-2.18,1-2.18,2.87s1,2.87,2.23,2.87a1.94,1.94,0,0,0,2-2.09h-1.8v-.79h2.63v.78a2.73,2.73,0,0,1-2.81,2.94c-1.83,0-3.06-1.43-3.06-3.71s1.25-3.71,3-3.71a2.8,2.8,0,0,1,2.82,2.36h-.88A2,2,0,0,0,612,448.8Z"/><path class="cls-7" d="M538.75,458.27v4.78a2.68,2.68,0,0,1-5.35,0v-4.78h.85V463a1.82,1.82,0,0,0,3.64,0v-4.71Z"/><path class="cls-7" d="M545.38,465.5h-.82l-3.71-5.63h-.07v5.63h-.85v-7.23h.83l3.72,5.64h.07v-5.64h.84Z"/><path class="cls-7" d="M547.41,465.5h-.85v-7.23h.85Z"/><path class="cls-7" d="M550.92,464.34H551l2-6.06h.9l-2.51,7.23h-.9L548,458.27h.9Z"/><path class="cls-7" d="M554.51,458.27h4.16v.8h-3.31v2.41h3.09v.79h-3.09v2.43h3.36v.8h-4.21Z"/><path class="cls-7" d="M559.68,458.27H562a2.08,2.08,0,0,1,2.34,2.22,2,2,0,0,1-1.28,2l1.55,3h-1l-1.44-2.81h-1.66v2.81h-.85Zm2.31,3.61c1.09,0,1.52-.52,1.52-1.38s-.43-1.43-1.53-1.43h-1.45v2.81Z"/><path class="cls-7" d="M567.47,459c-.91,0-1.5.5-1.5,1.19s.8,1,1.32,1.19l.69.2c.73.2,1.94.64,1.94,2,0,1.18-.9,2.1-2.49,2.1a2.2,2.2,0,0,1-2.48-2h.88c.07.81.78,1.19,1.6,1.19s1.66-.51,1.66-1.3-.64-1-1.36-1.19l-.84-.25c-1.08-.32-1.75-.9-1.75-1.88a2.38,2.38,0,0,1,4.69-.11H569A1.36,1.36,0,0,0,567.47,459Z"/><path class="cls-7" d="M571.65,465.5h-.85v-7.23h.85Z"/><path class="cls-7" d="M572.45,458.27h5.17v.8h-2.15v6.43h-.86v-6.43h-2.16Z"/><path class="cls-7" d="M578.81,458.27l1.89,3.36h.08l1.89-3.36h1l-2.48,4.26v3h-.86v-3l-2.48-4.26Z"/><path class="cls-7" d="M586.33,458.27h.85v3.21h3.63v-3.21h.86v7.23h-.86v-3.23h-3.63v3.23h-.85Z"/><path class="cls-7" d="M595.62,465.6c-1.76,0-3-1.43-3-3.71s1.27-3.71,3-3.71,3,1.43,3,3.71S597.38,465.6,595.62,465.6Zm0-.84c1.24,0,2.21-1,2.21-2.87s-1-2.87-2.21-2.87-2.21,1-2.21,2.87S594.38,464.76,595.62,464.76Z"/><path class="cls-7" d="M601.79,459c-.91,0-1.5.5-1.5,1.19s.8,1,1.32,1.19l.69.2c.73.2,1.94.64,1.94,2,0,1.18-.9,2.1-2.49,2.1a2.2,2.2,0,0,1-2.48-2h.88c.07.81.78,1.19,1.6,1.19s1.66-.51,1.66-1.3-.64-1-1.36-1.19l-.84-.25c-1.08-.32-1.75-.9-1.75-1.88a2.38,2.38,0,0,1,4.69-.11h-.83A1.36,1.36,0,0,0,601.79,459Z"/><path class="cls-7" d="M605.12,458.27h2.33a2.3,2.3,0,1,1,0,4.6H606v2.63h-.85Zm2.31,3.8a1.5,1.5,0,1,0,0-3H606v3Z"/><path class="cls-7" d="M611.5,465.5h-.85v-7.23h.85Z"/><path class="cls-7" d="M612.3,458.27h5.17v.8h-2.15v6.43h-.86v-6.43H612.3Z"/><path class="cls-7" d="M616.87,465.5l2.51-7.23h.9l2.51,7.23h-.9l-.68-2h-2.76l-.68,2Zm4.08-2.82-1.09-3.24h-.05l-1.09,3.24Z"/><path class="cls-7" d="M623.39,458.27h.85v6.43h3.18v.8h-4Z"/><path class="cls-7" d="M533,473.52h7.72v.65h-3.43V476h-.74v-1.81H533Zm7.23-1.39-.29.62a4.36,4.36,0,0,1-3.08-2,4.33,4.33,0,0,1-3.09,2l-.3-.62c1.48-.24,3-1.27,3-2.47v-.44h.76v.44C537.21,470.84,538.75,471.9,540.21,472.13Zm-6.24,3h.74V477h5.12v.65H534Z"/><path class="cls-7" d="M546.06,473.75l-.37.63a3.5,3.5,0,0,1-2.13-2,3.55,3.55,0,0,1-2.13,2.1l-.37-.61a3,3,0,0,0,2.11-2.79v-.28h-1.9v-.64h1.9v-1.14h.75v1.14h1.88v.64h-1.9v.28A2.9,2.9,0,0,0,546.06,473.75ZM542.62,475h.74v2h4.9v.65h-5.65Zm2.91-3.3h1.76V469H548v6.63h-.74v-3.25h-1.76Z"/><path class="cls-7" d="M549.12,470h2.15v-1.08H552V470h2.14v.63h-5Zm2.51,1.09c1.21,0,2,.61,2,1.57s-.82,1.57-2,1.56-2-.61-2-1.56S550.41,471.1,551.63,471.1Zm1.39,3.69c1.71,0,2.76.56,2.76,1.54s-1,1.52-2.76,1.52-2.77-.56-2.76-1.52S551.3,474.79,553,474.79Zm-1.39-1.17c.78,0,1.31-.37,1.32-1s-.54-1-1.32-1-1.33.4-1.32,1S550.83,473.62,551.63,473.62Zm1.39,3.62c1.25,0,2-.34,2-.91s-.76-.92-2-.92-2,.33-2,.92S551.76,477.25,553,477.24Zm3.91-6h-1.25v1.23h1.25v.66h-1.25v1.64h-.74V469h.74v1.55h1.25Z"/><path class="cls-7" d="M557.46,470.09h3.16v.64h-2.41V475a13,13,0,0,0,2.9-.25l.07.66a13.93,13.93,0,0,1-3.17.27h-.54Zm6.89,7.78h-.71v-4.66h-1.23v4.19h-.69V469.2h.69v3.37h1.23V469h.71Z"/><path class="cls-7" d="M570.25,470.59h-5V470h2.15v-1h.74v1h2.14Zm-2.51.47c1.21,0,2,.63,2,1.6s-.82,1.6-2,1.6-2-.63-2-1.6S566.52,471.07,567.74,471.06Zm-1.46,4h5.52v2.84h-.74v-2.19h-4.77Zm1.46-1.4c.78,0,1.31-.38,1.32-1s-.54-1-1.32-1-1.33.4-1.32,1S566.95,473.64,567.74,473.64Zm3.31-4.63h.74v2.46h1.27v.66H571.8v2.42h-.74Z"/><path class="cls-7" d="M573.26,476h1.9V473h.74V476h1.36V473H578V476h2.94v.66h-7.68Zm6.77-5.07a20.57,20.57,0,0,1-.3,3.93l-.73-.09a19,19,0,0,0,.29-3.84v-.34h-5.23v-.65h6Z"/><path class="cls-7" d="M582.49,471h2.35v-1.43h.74v.91h2V469h.74v5.38h-.74v-1.45h-2v.79h-3.83v-4.17h.74Zm2.35,2.1v-1.48h-2.35v1.48Zm.68,1.47c1.75,0,2.82.61,2.82,1.67s-1.07,1.64-2.82,1.64-2.83-.6-2.82-1.64S583.75,474.56,585.51,474.55Zm0,2.68c1.29,0,2.09-.38,2.09-1s-.8-1-2.09-1.05-2.09.39-2.09,1.05S584.22,477.23,585.51,477.23Zm2.05-5V471.1h-2v1.18Z"/><path class="cls-7" d="M594.81,472.86l.05.57a23,23,0,0,1-2.32.26v1.75h-.74v-1.72c-.85,0-1.67,0-2.37,0l-.1-.64A45.45,45.45,0,0,0,594.81,472.86Zm-2.72-3.49c1.23,0,2.08.61,2.09,1.55s-.85,1.54-2.09,1.54-2.09-.59-2.09-1.54S590.85,469.37,592.1,469.37Zm-1.55,5.72h.74V477h5.24v.65h-6Zm1.55-3.22c.8,0,1.37-.37,1.37-1s-.58-1-1.37-1-1.39.38-1.38,1S591.27,471.87,592.1,471.87Zm4.22,3.88h-.75v-.92h-1.74v-.57h1.74V469h.75Z"/><path class="cls-7" d="M536.34,627.54h5.17v.8h-2.15v6.43h-.86v-6.43h-2.16Z"/><path class="cls-7" d="M542.31,627.54h.85v3.21h3.63v-3.21h.86v7.23h-.86v-3.23h-3.63v3.23h-.85Z"/><path class="cls-7" d="M548.83,627.54H553v.8h-3.31v2.41h3.09v.79h-3.09V634H553v.8h-4.21Z"/><path class="cls-7" d="M558.87,628.28c-1.24,0-2.21,1-2.21,2.87s1,2.87,2.21,2.87a1.87,1.87,0,0,0,1.91-1.52h.86a2.72,2.72,0,0,1-2.77,2.36c-1.76,0-3-1.43-3-3.71s1.27-3.71,3-3.71a2.72,2.72,0,0,1,2.77,2.37h-.86A1.87,1.87,0,0,0,558.87,628.28Z"/><path class="cls-7" d="M561.89,634.77l2.51-7.23h.9l2.51,7.23h-.9l-.68-2h-2.76l-.68,2Zm4.08-2.82-1.09-3.24h-.05l-1.09,3.24Z"/><path class="cls-7" d="M567.23,627.54h5.17v.8h-2.15v6.43h-.86v-6.43h-2.16Z"/><path class="cls-7" d="M573.2,627.54H574v3.21h3.63v-3.21h.86v7.23h-.86v-3.23H574v3.23h-.85Z"/><path class="cls-7" d="M582.48,634.87c-1.76,0-3-1.43-3-3.71s1.27-3.71,3-3.71,3,1.43,3,3.71S584.24,634.87,582.48,634.87Zm0-.84c1.24,0,2.21-1,2.21-2.87s-1-2.87-2.21-2.87-2.21,1-2.21,2.87S581.24,634,582.48,634Z"/><path class="cls-7" d="M586.43,627.54h.85V634h3.19v.8h-4Z"/><path class="cls-7" d="M592.12,634.77h-.85v-7.23h.85Z"/><path class="cls-7" d="M596.06,628.28c-1.24,0-2.21,1-2.21,2.87s1,2.87,2.21,2.87A1.87,1.87,0,0,0,598,632.5h.86a2.72,2.72,0,0,1-2.77,2.36c-1.76,0-3-1.43-3-3.71s1.27-3.71,3-3.71a2.72,2.72,0,0,1,2.77,2.37H598A1.87,1.87,0,0,0,596.06,628.28Z"/><path class="cls-7" d="M607.13,627.54v4.78a2.68,2.68,0,0,1-5.35,0v-4.78h.85v4.71a1.82,1.82,0,0,0,3.64,0v-4.71Z"/><path class="cls-7" d="M613.76,634.77h-.82l-3.71-5.62h-.07v5.62h-.85v-7.23h.83l3.72,5.64h.07v-5.64h.84Z"/><path class="cls-7" d="M615.78,634.77h-.85v-7.23h.85Z"/><path class="cls-7" d="M619.29,633.6h.08l2-6.06h.9l-2.51,7.23h-.9l-2.51-7.23h.9Z"/><path class="cls-7" d="M621.84,634.18a.61.61,0,1,1,1.22,0,.61.61,0,1,1-1.22,0Z"/><path class="cls-7" d="M628.95,634.87c-1.76,0-3-1.43-3-3.71s1.27-3.71,3-3.71,3,1.43,3,3.71S630.71,634.87,628.95,634.87Zm0-.84c1.24,0,2.21-1,2.21-2.87s-1-2.87-2.21-2.87-2.21,1-2.21,2.87S627.71,634,628.95,634Z"/><path class="cls-7" d="M632.89,627.54H637v.8h-3.28v2.41h3v.79h-3v3.23h-.85Z"/><path class="cls-7" d="M640.05,627.54h.85v3.57H641l3.06-3.57h1.11l-2.87,3.26,2.87,4h-1l-2.36-3.35-.86,1v2.33h-.85Z"/><path class="cls-7" d="M648.19,634.87c-1.76,0-3-1.43-3-3.71s1.27-3.71,3-3.71,3,1.43,3,3.71S649.95,634.87,648.19,634.87Zm0-.84c1.24,0,2.21-1,2.21-2.87s-1-2.87-2.21-2.87-2.21,1-2.21,2.87S647,634,648.19,634Z"/><path class="cls-7" d="M652.14,627.54h2.33a2.08,2.08,0,0,1,2.34,2.22,2,2,0,0,1-1.28,2l1.55,3h-1L654.64,632H653v2.81h-.85Zm2.31,3.61c1.09,0,1.52-.52,1.52-1.38s-.43-1.43-1.53-1.43H653v2.81Z"/><path class="cls-7" d="M657.7,627.54h4.16v.8h-3.31v2.41h3.09v.79h-3.09V634h3.36v.8H657.7Z"/><path class="cls-7" d="M662.29,634.77l2.51-7.23h.9l2.51,7.23h-.9l-.68-2h-2.76l-.68,2Zm4.08-2.82-1.09-3.24h-.05l-1.09,3.24Z"/><path class="cls-7" d="M669,636.81h-.7l.52-2.72h.91Z"/><path class="cls-7" d="M538.94,638.46c-.91,0-1.5.5-1.5,1.19s.8,1,1.32,1.19l.69.2c.73.2,1.94.64,1.94,2,0,1.18-.9,2.1-2.49,2.1a2.2,2.2,0,0,1-2.48-2h.88c.07.81.78,1.19,1.6,1.19s1.66-.51,1.66-1.3-.64-1-1.36-1.19l-.84-.25c-1.08-.32-1.75-.9-1.75-1.88a2.38,2.38,0,0,1,4.69-.11h-.83A1.36,1.36,0,0,0,538.94,638.46Z"/><path class="cls-7" d="M542.27,637.76h4.16v.8h-3.31V641h3.09v.79h-3.09v2.43h3.36v.8h-4.21Z"/><path class="cls-7" d="M550.21,645.09c-1.76,0-3-1.43-3-3.71s1.27-3.71,3-3.71,3,1.43,3,3.71S552,645.09,550.21,645.09Zm0-.84c1.24,0,2.21-1,2.21-2.87s-1-2.87-2.21-2.87-2.21,1-2.21,2.87S549,644.25,550.21,644.25Z"/><path class="cls-7" d="M559.51,637.76v4.78a2.68,2.68,0,0,1-5.35,0v-4.78H555v4.71a1.82,1.82,0,0,0,3.64,0v-4.71Z"/><path class="cls-7" d="M560.68,637.76h.85v6.43h3.18v.8h-4Z"/><path class="cls-7" d="M569.84,638.46c-.9,0-1.5.5-1.5,1.19s.81,1,1.32,1.19l.69.2c.73.2,1.94.64,1.94,2,0,1.18-.9,2.1-2.49,2.1a2.2,2.2,0,0,1-2.48-2h.88c.07.81.78,1.19,1.6,1.19s1.66-.51,1.66-1.3-.64-1-1.36-1.19l-.84-.25c-1.08-.32-1.75-.9-1.75-1.88a2.38,2.38,0,0,1,4.69-.11h-.83A1.36,1.36,0,0,0,569.84,638.46Z"/><path class="cls-7" d="M572.79,637.76H578v.8h-2.15V645H575v-6.43h-2.16Z"/><path class="cls-7" d="M578.31,644.4a.61.61,0,1,1,.61.64A.63.63,0,0,1,578.31,644.4Z"/><path class="cls-7" d="M583.68,637.76l2.31,5.95h.08l2.31-5.95h1V645h-.8v-5.46h-.07L586.4,645h-.76l-2.13-5.46h-.06V645h-.81v-7.23Z"/><path class="cls-7" d="M590,645l2.51-7.23h.9l2.51,7.23H595l-.68-2h-2.76l-.68,2Zm4.08-2.82L593,638.93h-.05l-1.09,3.24Z"/><path class="cls-7" d="M596.51,637.76h2.33a2.08,2.08,0,0,1,2.34,2.22,2,2,0,0,1-1.28,2l1.55,3h-1L599,642.18h-1.66V645h-.85Zm2.31,3.61c1.09,0,1.52-.52,1.52-1.38s-.43-1.43-1.53-1.43h-1.45v2.81Z"/><path class="cls-7" d="M602.23,637.76l1.89,3.36h.08l1.89-3.36h1L604.59,642v3h-.86v-3l-2.48-4.26Z"/><path class="cls-7" d="M608,640.49h-.7l.52-2.72h.91Z"/><path class="cls-7" d="M611.69,638.46c-.91,0-1.5.5-1.5,1.19s.8,1,1.32,1.19l.69.2c.73.2,1.94.64,1.94,2,0,1.18-.9,2.1-2.49,2.1a2.2,2.2,0,0,1-2.48-2H610c.07.81.78,1.19,1.6,1.19s1.66-.51,1.66-1.3-.64-1-1.36-1.19l-.84-.25c-1.08-.32-1.75-.9-1.75-1.88a2.38,2.38,0,0,1,4.69-.11h-.83A1.36,1.36,0,0,0,611.69,638.46Z"/><path class="cls-7" d="M617.11,637.76H618V641h3.63v-3.21h.86V645h-.86v-3.23H618V645h-.85Z"/><path class="cls-7" d="M626.4,645.09c-1.76,0-3-1.43-3-3.71s1.27-3.71,3-3.71,3,1.43,3,3.71S628.16,645.09,626.4,645.09Zm0-.84c1.24,0,2.21-1,2.21-2.87s-1-2.87-2.21-2.87-2.21,1-2.21,2.87S625.16,644.25,626.4,644.25Z"/><path class="cls-7" d="M632.57,638.46c-.9,0-1.5.5-1.5,1.19s.81,1,1.32,1.19l.69.2c.73.2,1.94.64,1.94,2,0,1.18-.9,2.1-2.49,2.1a2.2,2.2,0,0,1-2.48-2h.88c.07.81.78,1.19,1.6,1.19s1.66-.51,1.66-1.3-.64-1-1.36-1.19l-.84-.25c-1.08-.32-1.75-.9-1.75-1.88a2.38,2.38,0,0,1,4.69-.11h-.83A1.36,1.36,0,0,0,632.57,638.46Z"/><path class="cls-7" d="M635.9,637.76h2.33a2.3,2.3,0,1,1,0,4.6h-1.5V645h-.85Zm2.31,3.8a1.5,1.5,0,1,0,0-3h-1.45v3Z"/><path class="cls-7" d="M642.28,645h-.85v-7.23h.85Z"/><path class="cls-7" d="M643.08,637.76h5.17v.8H646.1V645h-.86v-6.43h-2.16Z"/><path class="cls-7" d="M647.66,645l2.51-7.23h.9l2.51,7.23h-.9l-.68-2h-2.76l-.68,2Zm4.08-2.82-1.09-3.24h-.05l-1.09,3.24Z"/><path class="cls-7" d="M654.17,637.76H655v6.43h3.19v.8h-4Z"/><path class="cls-7" d="M539.89,650.1h-3.14v-.66h3.9a6.7,6.7,0,0,1-3.88,6.22l-.42-.61A6,6,0,0,0,539.89,650.1Zm2.94,2h1.37v.66h-1.37v4.59h-.74v-8.86h.74Z"/><path class="cls-7" d="M551.13,651.85h-2.57v.8H552v.6h-7.67v-.6h3.45v-.8h-2.45v-3.18h5.71v.58h-5V650h4.73v.56h-4.73v.76h5Zm-5.84,2H551v1.92h-5v.85h5.26v.59h-6v-2h5v-.78h-5Z"/><path class="cls-7" d="M552.84,649h3.86v2.44h-3.11v1.29a23.89,23.89,0,0,0,4-.27l.09.64a23.62,23.62,0,0,1-4.13.28h-.68v-2.56H556v-1.18h-3.12Zm.86,5.37h5.67v3h-.74V655H553.7Zm5.67-.49h-.74V648.5h.74Z"/><path class="cls-7" d="M560.78,649.58h3.16v.64h-2.41v4.28a13,13,0,0,0,2.9-.26l.07.66a14,14,0,0,1-3.17.27h-.54Zm6.89,7.78H567v-4.66h-1.23v4.19H565v-8.21h.69v3.36H567v-3.56h.71Z"/><path class="cls-7" d="M573.56,650.08h-5v-.63h2.15v-1h.74v1h2.14Zm-2.51.47c1.21,0,2,.63,2,1.6s-.82,1.59-2,1.59-2-.63-2-1.59S569.84,650.55,571.06,650.55Zm-1.46,4h5.52v2.84h-.74v-2.19H569.6Zm1.46-1.4c.78,0,1.31-.38,1.32-1s-.54-1-1.32-1-1.33.4-1.32,1S570.26,653.12,571.06,653.12Zm3.31-4.63h.74V651h1.27v.66h-1.27V654h-.74Z"/><path class="cls-7" d="M576.58,655.45h1.9v-2.92h.74v2.92h1.36v-2.92h.73v2.92h2.94v.66h-7.68Zm6.77-5.07a20.55,20.55,0,0,1-.3,3.93l-.73-.09a19,19,0,0,0,.29-3.84V650h-5.23v-.65h6Z"/><path class="cls-7" d="M591.72,652.71l-.42.61a3.56,3.56,0,0,1-2-2,3.7,3.7,0,0,1-2.15,2.29l-.4-.64a3.24,3.24,0,0,0,2.16-3V649h.74v.89A3,3,0,0,0,591.72,652.71Zm-.8,1.3c1.75,0,2.82.61,2.82,1.68s-1.07,1.66-2.82,1.66-2.83-.6-2.82-1.66S589.16,654,590.92,654Zm0,2.71c1.29,0,2.08-.39,2.08-1s-.8-1.06-2.08-1.06-2.09.4-2.09,1.06S589.62,656.71,590.92,656.71Zm.17-6.32H593v-1.9h.74v5.26H593V651h-1.88Z"/><path class="cls-7" d="M602.5,656.22h-7.72v-.66h3.47V653.4H595.7v-4.16h5.85v4.16H599v2.17h3.51Zm-1.68-3.45v-2.9h-4.4v2.9Z"/><path class="cls-7" d="M604,650.47h2.35V649h.74v.91h2v-1.45h.74v5.38h-.74v-1.45h-2v.79h-3.83V649H604Zm2.35,2.1V651.1H604v1.48ZM607,654c1.75,0,2.82.61,2.82,1.67s-1.07,1.64-2.82,1.64-2.83-.6-2.82-1.64S605.27,654,607,654Zm0,2.68c1.29,0,2.08-.38,2.08-1s-.8-1-2.08-1.05-2.09.39-2.09,1.05S605.73,656.72,607,656.72Zm2.05-5v-1.18h-2v1.18Z"/><path class="cls-7" d="M616.33,652.35l.05.57a23.05,23.05,0,0,1-2.32.26v1.75h-.75v-1.71c-.85,0-1.67,0-2.37,0l-.1-.64A45.19,45.19,0,0,0,616.33,652.35Zm-2.71-3.49c1.23,0,2.08.61,2.08,1.54s-.85,1.54-2.08,1.54-2.09-.59-2.09-1.54S612.37,648.86,613.62,648.86Zm-1.56,5.72h.74v1.94H618v.65h-6Zm1.56-3.22c.8,0,1.37-.37,1.37-1s-.58-1-1.37-1-1.39.38-1.38,1S612.79,651.36,613.62,651.36Zm4.22,3.88h-.75v-.93h-1.74v-.57h1.74V648.5h.75Z"/><path class="cls-7" d="M235.13,534.74h5.17v.8h-2.15V542h-.86v-6.43h-2.16Z"/><path class="cls-7" d="M241.1,534.74H242v3.21h3.63v-3.21h.86V542h-.86v-3.22H242V542h-.85Z"/><path class="cls-7" d="M247.62,534.74h4.16v.8h-3.31v2.41h3.09v.79h-3.09v2.43h3.36v.8h-4.21Z"/><path class="cls-7" d="M257.66,535.48c-1.24,0-2.21,1-2.21,2.87s1,2.87,2.21,2.87a1.87,1.87,0,0,0,1.91-1.52h.86a2.72,2.72,0,0,1-2.77,2.36c-1.76,0-3-1.43-3-3.71s1.27-3.71,3-3.71a2.72,2.72,0,0,1,2.77,2.37h-.86A1.87,1.87,0,0,0,257.66,535.48Z"/><path class="cls-7" d="M260.68,542l2.51-7.23h.9l2.51,7.23h-.9l-.68-2h-2.76l-.68,2Zm4.08-2.82-1.09-3.24h-.05l-1.09,3.24Z"/><path class="cls-7" d="M266,534.74h5.17v.8H269V542h-.86v-6.43H266Z"/><path class="cls-7" d="M272,534.74h.85v3.21h3.63v-3.21h.86V542h-.86v-3.22h-3.63V542H272Z"/><path class="cls-7" d="M281.28,542.06c-1.76,0-3-1.43-3-3.71s1.27-3.71,3-3.71,3,1.43,3,3.71S283,542.06,281.28,542.06Zm0-.84c1.24,0,2.21-1,2.21-2.87s-1-2.87-2.21-2.87-2.21,1-2.21,2.87S280,541.22,281.28,541.22Z"/><path class="cls-7" d="M285.22,534.74h.85v6.43h3.18v.8h-4Z"/><path class="cls-7" d="M290.91,542h-.85v-7.23h.85Z"/><path class="cls-7" d="M294.85,535.48c-1.24,0-2.21,1-2.21,2.87s1,2.87,2.21,2.87a1.87,1.87,0,0,0,1.91-1.52h.86a2.72,2.72,0,0,1-2.77,2.36c-1.76,0-3-1.43-3-3.71s1.27-3.71,3-3.71a2.72,2.72,0,0,1,2.77,2.37h-.86A1.87,1.87,0,0,0,294.85,535.48Z"/><path class="cls-7" d="M305.92,534.74v4.78a2.68,2.68,0,0,1-5.35,0v-4.78h.85v4.71a1.82,1.82,0,0,0,3.64,0v-4.71Z"/><path class="cls-7" d="M312.55,542h-.82L308,536.34h-.07V542h-.85v-7.23h.82l3.72,5.64h.07v-5.64h.84Z"/><path class="cls-7" d="M314.58,542h-.85v-7.23h.85Z"/><path class="cls-7" d="M318.08,540.8h.08l2-6.06h.9L318.57,542h-.9l-2.51-7.23h.91Z"/><path class="cls-7" d="M320.63,541.38a.61.61,0,1,1,.61.64A.62.62,0,0,1,320.63,541.38Z"/><path class="cls-7" d="M327.74,542.06c-1.76,0-3-1.43-3-3.71s1.27-3.71,3-3.71,3,1.43,3,3.71S329.5,542.06,327.74,542.06Zm0-.84c1.24,0,2.21-1,2.21-2.87s-1-2.87-2.21-2.87-2.21,1-2.21,2.87S326.5,541.22,327.74,541.22Z"/><path class="cls-7" d="M331.68,534.74h4.13v.8h-3.28v2.41h3v.79h-3V542h-.85Z"/><path class="cls-7" d="M338.84,534.74h.85v3.57h.09l3.06-3.57H344L341.08,538l2.87,4h-1l-2.36-3.34-.86,1V542h-.85Z"/><path class="cls-7" d="M347,542.06c-1.76,0-3-1.43-3-3.71s1.27-3.71,3-3.71,3,1.43,3,3.71S348.74,542.06,347,542.06Zm0-.84c1.24,0,2.21-1,2.21-2.87s-1-2.87-2.21-2.87-2.21,1-2.21,2.87S345.74,541.22,347,541.22Z"/><path class="cls-7" d="M350.93,534.74h2.33A2.08,2.08,0,0,1,355.6,537a2,2,0,0,1-1.28,2l1.55,3h-1l-1.44-2.81h-1.66V542h-.85Zm2.31,3.61c1.09,0,1.52-.52,1.52-1.38s-.43-1.43-1.53-1.43h-1.45v2.81Z"/><path class="cls-7" d="M356.49,534.74h4.16v.8h-3.31v2.41h3.09v.79h-3.09v2.43h3.36v.8h-4.21Z"/><path class="cls-7" d="M361.08,542l2.51-7.23h.9L367,542h-.9l-.68-2h-2.76l-.68,2Zm4.08-2.82-1.09-3.24H364l-1.09,3.24Z"/><path class="cls-7" d="M367.82,544h-.7l.52-2.72h.91Z"/><path class="cls-7" d="M235.9,545l1.89,3.36h.08l1.89-3.36h1l-2.48,4.26v3h-.86v-3L234.92,545Z"/><path class="cls-7" d="M241.32,545h4.16v.8h-3.31v2.41h3.09V549h-3.09v2.43h3.36v.8h-4.21Z"/><path class="cls-7" d="M249.26,552.29c-1.76,0-3-1.43-3-3.71s1.27-3.71,3-3.71,3,1.43,3,3.71S251,552.29,249.26,552.29Zm0-.84c1.24,0,2.21-1,2.21-2.87s-1-2.87-2.21-2.87-2.21,1-2.21,2.87S248,551.45,249.26,551.45Z"/><path class="cls-7" d="M258.56,545v4.78a2.68,2.68,0,0,1-5.35,0V545h.85v4.71a1.82,1.82,0,0,0,3.64,0V545Z"/><path class="cls-7" d="M260.59,552.19h-.85V545h.85Z"/><path class="cls-7" d="M261.76,552.19V545H264c2,0,3.18,1.36,3.18,3.6s-1.18,3.63-3.27,3.63Zm2.08-.8c1.68,0,2.49-1.07,2.49-2.83s-.81-2.8-2.41-2.8h-1.31v5.63Z"/><path class="cls-7" d="M270.84,552.29c-1.76,0-3-1.43-3-3.71s1.27-3.71,3-3.71,3,1.43,3,3.71S272.6,552.29,270.84,552.29Zm0-.84c1.24,0,2.21-1,2.21-2.87s-1-2.87-2.21-2.87-2.21,1-2.21,2.87S269.6,551.45,270.84,551.45Z"/><path class="cls-7" d="M279.11,545.66c-.91,0-1.5.5-1.5,1.19s.8,1,1.32,1.19l.69.2c.73.2,1.94.64,1.94,2,0,1.18-.9,2.1-2.49,2.1a2.2,2.2,0,0,1-2.48-2h.88c.07.81.78,1.19,1.6,1.19s1.66-.51,1.66-1.3-.64-1-1.36-1.19l-.84-.25c-1.08-.32-1.75-.9-1.75-1.88a2.38,2.38,0,0,1,4.69-.11h-.83A1.36,1.36,0,0,0,279.11,545.66Z"/><path class="cls-7" d="M282.06,545h5.17v.8h-2.15v6.43h-.86v-6.43h-2.16Z"/><path class="cls-7" d="M287.58,551.6a.61.61,0,1,1,.61.64A.62.62,0,0,1,287.58,551.6Z"/><path class="cls-7" d="M292.94,545l2.31,5.95h.08l2.31-5.95h1v7.23h-.8v-5.46h-.07l-2.13,5.46h-.76l-2.13-5.46h-.06v5.46h-.8V545Z"/><path class="cls-7" d="M299.26,552.19l2.51-7.23h.9l2.51,7.23h-.9l-.68-2h-2.76l-.68,2Zm4.08-2.82-1.09-3.24h-.05l-1.09,3.24Z"/><path class="cls-7" d="M305.78,545h2.33a2.08,2.08,0,0,1,2.34,2.22,2,2,0,0,1-1.28,2l1.55,3h-1l-1.44-2.81h-1.66v2.81h-.85Zm2.31,3.61c1.09,0,1.52-.52,1.52-1.38s-.43-1.43-1.53-1.43h-1.45v2.81Z"/><path class="cls-7" d="M311.5,545l1.89,3.36h.08l1.89-3.36h1l-2.48,4.26v3H313v-3L310.52,545Z"/><path class="cls-7" d="M317.52,547.46h-.75V545h.75Z"/><path class="cls-7" d="M320.77,545.66c-.91,0-1.5.5-1.5,1.19s.8,1,1.32,1.19l.69.2c.73.2,1.94.64,1.94,2,0,1.18-.9,2.1-2.49,2.1a2.2,2.2,0,0,1-2.48-2h.88c.07.81.78,1.19,1.6,1.19s1.66-.51,1.66-1.3-.64-1-1.36-1.19l-.84-.25c-1.08-.32-1.75-.9-1.75-1.88a2.38,2.38,0,0,1,4.69-.11h-.83A1.36,1.36,0,0,0,320.77,545.66Z"/><path class="cls-7" d="M326.19,545H327v3.21h3.63V545h.86v7.23h-.86V549H327v3.23h-.85Z"/><path class="cls-7" d="M335.48,552.29c-1.76,0-3-1.43-3-3.71s1.27-3.71,3-3.71,3,1.43,3,3.71S337.24,552.29,335.48,552.29Zm0-.84c1.24,0,2.21-1,2.21-2.87s-1-2.87-2.21-2.87-2.21,1-2.21,2.87S334.24,551.45,335.48,551.45Z"/><path class="cls-7" d="M341.65,545.66c-.91,0-1.5.5-1.5,1.19s.8,1,1.32,1.19l.69.2c.73.2,1.94.64,1.94,2,0,1.18-.9,2.1-2.49,2.1a2.2,2.2,0,0,1-2.48-2H340c.07.81.78,1.19,1.6,1.19s1.66-.51,1.66-1.3-.64-1-1.36-1.19l-.84-.25c-1.08-.32-1.75-.9-1.75-1.88a2.38,2.38,0,0,1,4.69-.11h-.83A1.36,1.36,0,0,0,341.65,545.66Z"/><path class="cls-7" d="M345,545h2.33a2.3,2.3,0,1,1,0,4.6h-1.5v2.63H345Zm2.31,3.8a1.5,1.5,0,1,0,0-3h-1.45v3Z"/><path class="cls-7" d="M351.36,552.19h-.85V545h.85Z"/><path class="cls-7" d="M352.16,545h5.17v.8h-2.15v6.43h-.86v-6.43h-2.16Z"/><path class="cls-7" d="M356.74,552.19l2.51-7.23h.9l2.51,7.23h-.9l-.68-2h-2.76l-.68,2Zm4.08-2.82-1.09-3.24h-.05l-1.09,3.24Z"/><path class="cls-7" d="M363.25,545h.85v6.43h3.18v.8h-4Z"/><path class="cls-7" d="M238.68,557.3h-3.14v-.66h3.9a6.7,6.7,0,0,1-3.88,6.22l-.42-.61A6,6,0,0,0,238.68,557.3Zm2.94,2H243V560h-1.37v4.59h-.74v-8.86h.74Z"/><path class="cls-7" d="M249.92,559h-2.57v.8h3.47v.6h-7.67v-.6h3.45V559h-2.45v-3.18h5.71v.58h-5v.71h4.73v.56h-4.73v.76h5Zm-5.84,2h5.76V563h-5v.85h5.26v.59h-6v-2h5v-.78h-5Z"/><path class="cls-7" d="M251.63,556.23h3.86v2.44h-3.11V560a23.78,23.78,0,0,0,4-.27l.09.64a23.71,23.71,0,0,1-4.13.28h-.68V558h3.1v-1.18h-3.12Zm.87,5.37h5.67v3h-.74v-2.31h-4.93Zm5.67-.49h-.74V555.7h.74Z"/><path class="cls-7" d="M261.66,556.78h3.16v.64h-2.41v4.28a13.05,13.05,0,0,0,2.9-.25l.07.66a13.89,13.89,0,0,1-3.16.27h-.54Zm6.89,7.78h-.71V559.9h-1.23v4.19h-.69v-8.21h.69v3.37h1.23v-3.56h.71Z"/><path class="cls-7" d="M274.45,557.28h-5v-.63h2.15v-1h.74v1h2.14Zm-2.51.47c1.21,0,2,.63,2,1.6s-.82,1.6-2,1.6-2-.63-2-1.6S270.72,557.75,271.94,557.74Zm-1.46,4H276v2.84h-.74v-2.2h-4.77Zm1.46-1.4c.78,0,1.31-.38,1.32-1s-.54-1-1.32-1-1.33.4-1.32,1S271.14,560.32,271.94,560.32Zm3.31-4.63H276v2.46h1.27v.66H276v2.42h-.74Z"/><path class="cls-7" d="M277.46,562.65h1.9v-2.92h.74v2.92h1.36v-2.92h.73v2.92h2.94v.66h-7.68Zm6.77-5.07a20.74,20.74,0,0,1-.3,3.93l-.73-.09a19,19,0,0,0,.29-3.84v-.34h-5.23v-.65h6Z"/><path class="cls-7" d="M291.64,557.67h2.22v-2h.74v8.89h-.74v-3.44H291.7a2,2,0,0,1-1.82,1.43c-1.25,0-2.12-1.2-2.11-3.09s.87-3.09,2.11-3.09A1.94,1.94,0,0,1,291.64,557.67Zm-1.77,4.18c.82,0,1.4-.95,1.4-2.39s-.58-2.39-1.4-2.39-1.4,1-1.4,2.39S289,561.86,289.88,561.86Zm2.11-2.39a5,5,0,0,1-.1,1h2v-2.15h-2A5,5,0,0,1,292,559.47Z"/><path class="cls-7" d="M301.28,561.65l.06.58a29.09,29.09,0,0,1-5.52.39l-.1-.67A37.08,37.08,0,0,0,301.28,561.65Zm-.58-3.23a2.28,2.28,0,1,1-2.27-2.08A2.09,2.09,0,0,1,300.7,558.42Zm-2.27,1.4a1.4,1.4,0,1,0-1.54-1.4A1.42,1.42,0,0,0,298.42,559.82Zm3.41-4.13h.74v8.89h-.74Z"/><path class="cls-7" d="M310.53,560.48h-2.6v2.3h3.51v.66h-7.72v-.66h3.47v-2.3h-2.48v-4.07h5.74v.64h-5v2.79h5.08Z"/><path class="cls-7" d="M316.77,559.9l-.42.61a3.56,3.56,0,0,1-2-2,3.7,3.7,0,0,1-2.15,2.29l-.4-.63a3.25,3.25,0,0,0,2.17-3v-.92h.74v.89A3,3,0,0,0,316.77,559.9Zm-.8,1.3c1.75,0,2.82.61,2.82,1.68s-1.07,1.66-2.82,1.66-2.83-.6-2.82-1.66S314.21,561.2,316,561.2Zm0,2.71c1.29,0,2.09-.39,2.09-1s-.8-1.06-2.09-1.06-2.09.4-2.09,1.06S314.67,563.91,316,563.91Zm.17-6.32H318v-1.9h.74v5.26H318v-2.71h-1.88Z"/><path class="cls-7" d="M327.55,563.42h-7.72v-.66h3.47V560.6h-2.55v-4.16h5.85v4.16H324v2.17h3.51ZM325.87,560v-2.9h-4.4V560Z"/><path class="cls-7" d="M329.06,557.67h2.35v-1.43h.74v.91h2v-1.45h.74v5.38h-.74v-1.45h-2v.79h-3.83v-4.17h.74Zm2.35,2.1v-1.47h-2.35v1.47Zm.68,1.47c1.75,0,2.82.61,2.82,1.67s-1.07,1.64-2.82,1.64-2.83-.6-2.82-1.64S330.32,561.24,332.08,561.24Zm0,2.68c1.29,0,2.09-.38,2.09-1s-.8-1-2.09-1.05-2.09.39-2.09,1.05S330.79,563.92,332.08,563.92Zm2.05-5v-1.18h-2V559Z"/><path class="cls-7" d="M341.38,559.54l.05.57a23,23,0,0,1-2.32.26v1.75h-.74v-1.72c-.85,0-1.67,0-2.37,0l-.1-.64A45.44,45.44,0,0,0,341.38,559.54Zm-2.72-3.49c1.23,0,2.08.61,2.09,1.55s-.85,1.54-2.09,1.54-2.09-.59-2.09-1.54S337.42,556.06,338.67,556.06Zm-1.56,5.72h.74v1.94h5.24v.65h-6Zm1.56-3.22c.8,0,1.37-.37,1.37-1s-.58-1-1.37-1-1.39.38-1.38,1S337.84,558.55,338.67,558.55Zm4.22,3.88h-.75v-.92H340.4v-.57h1.74V555.7h.75Z"/><path class="cls-7" d="M344.19,599.73c-1.24,0-2.21,1-2.21,2.87s1,2.87,2.21,2.87a1.87,1.87,0,0,0,1.91-1.52H347a2.72,2.72,0,0,1-2.77,2.36c-1.76,0-3-1.43-3-3.71s1.27-3.71,3-3.71a2.72,2.72,0,0,1,2.77,2.37h-.86A1.87,1.87,0,0,0,344.19,599.73Z"/><path class="cls-7" d="M347.82,599h.85v3.21h3.63V599h.86v7.23h-.86V603h-3.63v3.23h-.85Z"/><path class="cls-7" d="M359.69,599v4.78a2.68,2.68,0,0,1-5.35,0V599h.85v4.71a1.82,1.82,0,0,0,3.64,0V599Z"/><path class="cls-7" d="M366.31,606.21h-.82l-3.71-5.63h-.07v5.63h-.85V599h.82l3.72,5.64h.07V599h.84Z"/><path class="cls-7" d="M370.23,599.73c-1.21,0-2.18,1-2.18,2.87s1,2.87,2.23,2.87a1.94,1.94,0,0,0,2-2.09h-1.8v-.79h2.63v.78a2.73,2.73,0,0,1-2.81,2.94c-1.83,0-3.06-1.43-3.06-3.71s1.25-3.71,3-3.71a2.8,2.8,0,0,1,2.82,2.36h-.88A2,2,0,0,0,370.23,599.73Z"/><path class="cls-7" d="M376.88,603h-3v-.79h3Z"/><path class="cls-7" d="M377.3,606.21l2.51-7.23h.9l2.51,7.23h-.9l-.68-2h-2.76l-.68,2Zm4.08-2.82-1.09-3.24h-.05l-1.09,3.24Z"/><path class="cls-7" d="M389.27,606.21h-.82l-3.71-5.63h-.07v5.63h-.85V599h.82l3.72,5.64h.07V599h.84Z"/><path class="cls-7" d="M393.19,599.73c-1.21,0-2.18,1-2.18,2.87s1,2.87,2.23,2.87a1.94,1.94,0,0,0,2-2.09h-1.8v-.79H396v.78a2.73,2.73,0,0,1-2.81,2.94c-1.83,0-3.06-1.43-3.06-3.71s1.25-3.71,3-3.71a2.8,2.8,0,0,1,2.82,2.36h-.88A2,2,0,0,0,393.19,599.73Z"/><path class="cls-7" d="M404.43,599v4.78a2.68,2.68,0,0,1-5.35,0V599h.85v4.71a1.82,1.82,0,0,0,3.64,0V599Z"/><path class="cls-7" d="M411.05,606.21h-.82l-3.71-5.63h-.07v5.63h-.85V599h.82l3.72,5.64h.07V599h.84Z"/><path class="cls-7" d="M413.08,606.21h-.85V599h.85Z"/><path class="cls-7" d="M416.59,605h.08l2-6.06h.9l-2.51,7.23h-.9L413.67,599h.91Z"/><path class="cls-7" d="M420.18,599h4.16v.8H421v2.41h3.09V603H421v2.43h3.36v.8h-4.21Z"/><path class="cls-7" d="M425.35,599h2.33a2.08,2.08,0,0,1,2.34,2.22,2,2,0,0,1-1.28,2l1.55,3h-1l-1.44-2.81H426.2v2.81h-.85Zm2.31,3.61c1.09,0,1.52-.52,1.52-1.38s-.43-1.43-1.53-1.43H426.2v2.81Z"/><path class="cls-7" d="M433.15,599.69c-.91,0-1.5.5-1.5,1.19s.8,1,1.32,1.19l.69.2c.73.2,1.94.64,1.94,2,0,1.18-.9,2.1-2.49,2.1a2.2,2.2,0,0,1-2.48-2h.88c.07.81.78,1.19,1.6,1.19s1.66-.51,1.66-1.3-.64-1-1.36-1.19l-.84-.25c-1.08-.33-1.75-.9-1.75-1.88a2.38,2.38,0,0,1,4.69-.11h-.83A1.36,1.36,0,0,0,433.15,599.69Z"/><path class="cls-7" d="M437.33,606.21h-.85V599h.85Z"/><path class="cls-7" d="M438.13,599h5.17v.8h-2.15v6.43h-.86v-6.43h-2.16Z"/><path class="cls-7" d="M444.48,599l1.89,3.36h.08l1.89-3.36h1l-2.48,4.26v3H446v-3L443.51,599Z"/><path class="cls-7" d="M341.42,609.21h.85v3.21h3.63v-3.21h.86v7.23h-.86v-3.23h-3.63v3.23h-.85Z"/><path class="cls-7" d="M350.71,616.53c-1.76,0-3-1.43-3-3.71s1.27-3.71,3-3.71,3,1.43,3,3.71S352.47,616.53,350.71,616.53Zm0-.84c1.24,0,2.21-1,2.21-2.87s-1-2.87-2.21-2.87-2.21,1-2.21,2.87S349.47,615.69,350.71,615.69Z"/><path class="cls-7" d="M356.88,609.91c-.91,0-1.5.5-1.5,1.19s.8,1,1.32,1.19l.69.2c.73.2,1.94.64,1.94,2,0,1.18-.9,2.1-2.49,2.1a2.2,2.2,0,0,1-2.48-2h.88c.07.81.78,1.19,1.6,1.19s1.66-.51,1.66-1.3-.64-1-1.36-1.19l-.84-.25c-1.08-.33-1.75-.9-1.75-1.88a2.38,2.38,0,0,1,4.69-.11h-.83A1.36,1.36,0,0,0,356.88,609.91Z"/><path class="cls-7" d="M360.21,609.21h2.33a2.3,2.3,0,1,1,0,4.6h-1.5v2.63h-.85Zm2.31,3.8a1.5,1.5,0,1,0,0-3h-1.45v3Z"/><path class="cls-7" d="M366.59,616.43h-.85v-7.23h.85Z"/><path class="cls-7" d="M367.39,609.21h5.17v.8h-2.15v6.43h-.86V610h-2.16Z"/><path class="cls-7" d="M372,616.43l2.51-7.23h.9l2.51,7.23H377l-.68-2h-2.76l-.68,2Zm4.08-2.82L375,610.37h-.05l-1.09,3.24Z"/><path class="cls-7" d="M378.48,609.21h.85v6.43h3.18v.8h-4Z"/><path class="cls-7" d="M348.69,624.74h-3.48v.95c1.59.07,2.53.62,2.53,1.55s-1.09,1.55-2.9,1.55-2.91-.56-2.91-1.55.94-1.48,2.54-1.55v-.95H341v-.65h7.68ZM344.37,621h-2.66v-.63H348V621h-2.67c0,1,1.44,1.78,2.93,1.94l-.27.62a4,4,0,0,1-3.14-1.82,4,4,0,0,1-3.14,1.82l-.27-.62C342.91,622.76,344.31,622,344.37,621Zm.48,7.19c1.34,0,2.15-.35,2.16-.94s-.82-.95-2.16-1-2.16.35-2.15,1S343.5,628.18,344.84,628.17Z"/><path class="cls-7" d="M353.65,622.56a2.22,2.22,0,0,1-4.42,0,2.22,2.22,0,0,1,4.42,0ZM351.44,624a1.42,1.42,0,1,0,0-2.84,1.42,1.42,0,1,0,0,2.84Zm1.52,1.49c1.72,0,2.78.61,2.78,1.67s-1.06,1.65-2.78,1.65-2.8-.61-2.8-1.65S351.23,625.48,353,625.47Zm0,2.68c1.27,0,2.05-.37,2.05-1s-.78-1-2.05-1-2.06.38-2.05,1S351.68,628.15,353,628.15Zm2-8.22h.74v2.23h1.27v.65h-1.27v2.39h-.74Z"/><path class="cls-7" d="M357.43,621h3.16v.64h-2.41v4.28a13,13,0,0,0,2.9-.25l.07.66a14,14,0,0,1-3.16.27h-.54Zm6.89,7.78h-.71v-4.66h-1.23v4.19h-.69v-8.21h.69v3.37h1.23v-3.56h.71Z"/><path class="cls-7" d="M370.22,621.53h-5v-.63h2.15v-1h.74v1h2.14Zm-2.51.47c1.21,0,2,.63,2,1.6s-.82,1.59-2,1.59-2-.63-2-1.59S366.49,622,367.71,622Zm-1.46,4h5.52v2.84H371v-2.19h-4.77Zm1.46-1.4c.78,0,1.31-.38,1.32-1s-.54-1-1.32-1-1.33.4-1.32,1S366.91,624.57,367.71,624.57Zm3.31-4.63h.74v2.46H373v.66h-1.27v2.42H371Z"/><path class="cls-7" d="M373.23,626.9h1.9V624h.74v2.92h1.36V624H378v2.92h2.94v.66h-7.68Zm6.77-5.07a20.75,20.75,0,0,1-.3,3.93l-.73-.09a19,19,0,0,0,.29-3.84v-.34H374v-.65h6Z"/><path class="cls-7" d="M382.45,621.91h2.35v-1.43h.74v.91h2v-1.45h.74v5.38h-.74v-1.45h-2v.79h-3.83v-4.17h.74Zm2.35,2.1v-1.48h-2.35V624Zm.68,1.47c1.75,0,2.82.61,2.82,1.67s-1.07,1.64-2.82,1.64-2.83-.6-2.82-1.64S383.72,625.49,385.47,625.49Zm0,2.68c1.29,0,2.09-.38,2.09-1s-.8-1-2.09-1.05-2.09.39-2.09,1.05S384.18,628.17,385.47,628.17Zm2.05-5V622h-2v1.18Z"/><path class="cls-7" d="M394.78,623.79l.05.57a23,23,0,0,1-2.32.26v1.75h-.74v-1.72c-.85,0-1.67,0-2.37,0l-.1-.64A45.43,45.43,0,0,0,394.78,623.79Zm-2.72-3.49c1.23,0,2.08.61,2.09,1.55s-.85,1.54-2.09,1.54-2.09-.59-2.09-1.54S390.81,620.3,392.06,620.3ZM390.51,626h.74V628h5.24v.65h-6Zm1.56-3.22c.8,0,1.37-.37,1.37-1s-.58-1-1.37-1-1.39.38-1.38,1S391.24,622.8,392.06,622.8Zm4.22,3.88h-.75v-.92H393.8v-.57h1.74v-5.24h.75Z"/><path class="cls-7" d="M727,650.88c-1.21,0-2.18,1-2.18,2.87s1,2.87,2.23,2.87a1.94,1.94,0,0,0,2-2.09h-1.8v-.79h2.63v.78a2.73,2.73,0,0,1-2.81,2.94c-1.83,0-3.06-1.43-3.06-3.71s1.25-3.71,3-3.71a2.8,2.8,0,0,1,2.82,2.36H729A2,2,0,0,0,727,650.88Z"/><path class="cls-7" d="M730,657.36l2.51-7.23h.9l2.51,7.23h-.9l-.68-2h-2.76l-.68,2Zm4.08-2.82L733,651.3H733l-1.09,3.24Z"/><path class="cls-7" d="M742,657.36h-.82l-3.71-5.62h-.07v5.62h-.85v-7.23h.83l3.72,5.64h.07v-5.64H742Z"/><path class="cls-7" d="M745.92,650.88c-1.21,0-2.18,1-2.18,2.87s1,2.87,2.23,2.87a1.94,1.94,0,0,0,2-2.09h-1.8v-.79h2.63v.78a2.73,2.73,0,0,1-2.81,2.94c-1.83,0-3.06-1.43-3.06-3.71s1.25-3.71,3-3.71a2.8,2.8,0,0,1,2.82,2.36h-.89A2,2,0,0,0,745.92,650.88Z"/><path class="cls-7" d="M755.17,657.36h-.82l-3.71-5.62h-.07v5.62h-.85v-7.23h.83l3.72,5.64h.07v-5.64h.84Z"/><path class="cls-7" d="M755.76,657.36l2.51-7.23h.9l2.51,7.23h-.9l-.68-2h-2.76l-.68,2Zm4.08-2.82-1.09-3.24h-.05l-1.09,3.24Z"/><path class="cls-7" d="M763.3,650.14l2.31,5.95h.08l2.31-5.95h1v7.23h-.8v-5.46h-.07L766,657.36h-.76l-2.13-5.46h-.06v5.46h-.81v-7.23Z"/><path class="cls-7" d="M726.53,661.06c-.91,0-1.5.5-1.5,1.19s.8,1,1.32,1.19l.69.2c.73.2,1.94.64,1.94,2,0,1.18-.9,2.1-2.49,2.1a2.2,2.2,0,0,1-2.48-2h.88c.07.81.78,1.19,1.6,1.19s1.66-.51,1.66-1.3-.64-1-1.36-1.19l-.84-.25c-1.08-.32-1.75-.9-1.75-1.88a2.38,2.38,0,0,1,4.69-.11h-.83A1.36,1.36,0,0,0,726.53,661.06Z"/><path class="cls-7" d="M729.86,660.36H734v.8h-3.31v2.41h3.09v.79h-3.09v2.43h3.36v.8h-4.21Z"/><path class="cls-7" d="M737.36,666.42h.08l2-6.06h.9l-2.51,7.23H737l-2.51-7.23h.9Z"/><path class="cls-7" d="M741,660.36h4.16v.8h-3.31v2.41h3.09v.79h-3.09v2.43h3.36v.8H741Z"/><path class="cls-7" d="M746.13,660.36h2.33a2.08,2.08,0,0,1,2.34,2.22,2,2,0,0,1-1.28,2l1.55,3h-1l-1.44-2.81H747v2.81h-.85Zm2.31,3.61c1.09,0,1.52-.52,1.52-1.38s-.43-1.43-1.53-1.43H747V664Z"/><path class="cls-7" d="M751.1,667.58l2.51-7.23h.9l2.51,7.23h-.9l-.68-2h-2.76l-.68,2Zm4.08-2.82-1.09-3.24H754L753,664.76Z"/><path class="cls-7" d="M763.07,667.58h-.82L758.54,662h-.07v5.62h-.85v-7.23h.83l3.72,5.64h.07v-5.64h.84Z"/><path class="cls-7" d="M767,661.1c-1.24,0-2.21,1-2.21,2.87s1,2.87,2.21,2.87a1.87,1.87,0,0,0,1.91-1.52h.86a2.72,2.72,0,0,1-2.77,2.36c-1.76,0-3-1.43-3-3.71s1.27-3.71,3-3.71a2.72,2.72,0,0,1,2.77,2.37h-.86A1.87,1.87,0,0,0,767,661.1Z"/><path class="cls-7" d="M770.64,660.36h4.16v.8h-3.31v2.41h3.09v.79h-3.09v2.43h3.36v.8h-4.21Z"/><path class="cls-7" d="M777.9,660.36h.85v3.21h3.63v-3.21h.86v7.23h-.86v-3.22h-3.63v3.22h-.85Z"/><path class="cls-7" d="M787.19,667.68c-1.76,0-3-1.43-3-3.71s1.27-3.71,3-3.71,3,1.43,3,3.71S788.95,667.68,787.19,667.68Zm0-.84c1.24,0,2.21-1,2.21-2.87s-1-2.87-2.21-2.87-2.21,1-2.21,2.87S785.95,666.84,787.19,666.84Z"/><path class="cls-7" d="M793.36,661.06c-.91,0-1.5.5-1.5,1.19s.8,1,1.32,1.19l.69.2c.73.2,1.94.64,1.94,2,0,1.18-.9,2.1-2.49,2.1a2.2,2.2,0,0,1-2.48-2h.88c.07.81.78,1.19,1.6,1.19s1.66-.51,1.66-1.3-.64-1-1.36-1.19l-.84-.25c-1.08-.32-1.75-.9-1.75-1.88a2.38,2.38,0,0,1,4.69-.11h-.83A1.36,1.36,0,0,0,793.36,661.06Z"/><path class="cls-7" d="M796.69,660.36H799a2.3,2.3,0,1,1,0,4.6h-1.49v2.63h-.85Zm2.31,3.8a1.5,1.5,0,1,0,0-3h-1.45v3Z"/><path class="cls-7" d="M803.07,667.58h-.85v-7.23h.85Z"/><path class="cls-7" d="M803.87,660.36H809v.8h-2.15v6.43H806v-6.43h-2.16Z"/><path class="cls-7" d="M808.44,667.58l2.51-7.23h.9l2.51,7.23h-.9l-.68-2H810l-.68,2Zm4.08-2.82-1.09-3.24h-.05l-1.09,3.24Z"/><path class="cls-7" d="M815,660.36h.85v6.43H819v.8h-4Z"/><path class="cls-7" d="M727.38,672.39h-3.11v-.65h3.91c0,2.26-1.52,3.92-4,4.68l-.31-.64C725.94,675.16,727.23,673.94,727.38,672.39Zm.44,4.11c1.69,0,2.76.65,2.76,1.72s-1.07,1.71-2.76,1.71-2.77-.64-2.76-1.71S726.14,676.51,727.82,676.51Zm0,2.8c1.23,0,2-.42,2-1.09s-.8-1.09-2-1.08-2,.41-2,1.08S726.58,679.31,727.82,679.31Zm2.66-5.91h1.27V674h-1.27v2.36h-.74v-5.32h.74Z"/><path class="cls-7" d="M732.35,671.54h.75v3.23a18.25,18.25,0,0,0,3.8-.4l.09.66a18.66,18.66,0,0,1-4,.4h-.67Zm.84,5.05h5.34v3.24H733.2Zm4.61,2.6v-2h-3.89v2Zm.72-6.07h1.27v.66h-1.27v2.31h-.74v-5h.74Z"/><path class="cls-7" d="M744.28,677.24l-.43.61a4.33,4.33,0,0,1-1.69-2.54,4.59,4.59,0,0,1-1.77,2.73l-.48-.59a4.55,4.55,0,0,0,1.88-3.81v-1.72h.72v1.69A4.38,4.38,0,0,0,744.28,677.24Zm-.93-3h1.43v-3h.7v8.23h-.7v-4.57h-1.43Zm3.16-3.18h.72V680h-.72Z"/><path class="cls-7" d="M755.77,678.77h-7.72v-.66h7.72Zm-6.8-7.05h.74v1.66h4.38v-1.66h.74v4.62H749Zm5.12,4V674h-4.38v1.7Z"/><path class="cls-7" d="M756.47,671.67h3.82v2.53h-3.06v1.39a20.19,20.19,0,0,0,3.89-.3l.07.66a21.56,21.56,0,0,1-4.05.29h-.66v-2.65h3.07v-1.26h-3.09Zm1,5.45h.75v2h4.87v.65h-5.62Zm5.22-3.3H764v.66H762.7v3.14H762v-6.53h.74Z"/><path class="cls-7" d="M764.17,678.1h7.72v.66h-7.72Zm7.32-2.54-.35.66a4.71,4.71,0,0,1-3.16-2.57,4.73,4.73,0,0,1-3.16,2.57l-.34-.66c1.46-.3,3.1-1.64,3.1-3.16v-.68h.78v.68C768.37,673.91,770,675.27,771.49,675.55Z"/><path class="cls-7" d="M773.39,673.06h2.35v-1.43h.74v.91h2v-1.45h.74v5.38h-.74V675h-2v.79h-3.83v-4.17h.74Zm2.35,2.1v-1.47h-2.35v1.47Zm.68,1.47c1.75,0,2.82.61,2.82,1.67s-1.07,1.64-2.82,1.64-2.83-.6-2.82-1.64S774.65,676.64,776.41,676.63Zm0,2.68c1.29,0,2.09-.38,2.09-1s-.8-1-2.09-1.05-2.09.39-2.09,1.05S775.12,679.32,776.41,679.32Zm2.05-5v-1.18h-2v1.18Z"/><path class="cls-7" d="M785.71,674.94l.05.57a23,23,0,0,1-2.32.26v1.75h-.74v-1.72c-.85,0-1.67,0-2.37,0l-.1-.64A45.43,45.43,0,0,0,785.71,674.94ZM783,671.45c1.23,0,2.08.61,2.09,1.55s-.85,1.54-2.09,1.54-2.09-.59-2.09-1.54S781.75,671.45,783,671.45Zm-1.55,5.72h.74v1.94h5.24v.65h-6ZM783,674c.8,0,1.37-.37,1.37-1s-.58-1-1.37-1-1.39.38-1.38,1S782.17,674,783,674Zm4.22,3.88h-.75v-.92h-1.74v-.57h1.74v-5.24h.75Z"/><path class="cls-7" d="M863.29,673c-.91,0-1.5.5-1.5,1.19s.8,1,1.32,1.19l.69.2c.73.2,1.94.64,1.94,2,0,1.18-.9,2.1-2.49,2.1a2.2,2.2,0,0,1-2.48-2h.88c.07.81.78,1.19,1.6,1.19s1.66-.51,1.66-1.3-.64-1-1.36-1.19l-.84-.25c-1.08-.32-1.75-.9-1.75-1.88a2.38,2.38,0,0,1,4.69-.11h-.83A1.36,1.36,0,0,0,863.29,673Z"/><path class="cls-7" d="M866,679.55l2.51-7.23h.9l2.51,7.23H871l-.68-2H867.6l-.68,2Zm4.08-2.82L869,673.49H869l-1.09,3.24Z"/><path class="cls-7" d="M873.56,672.32l2.31,5.95h.08l2.31-5.95h1v7.23h-.8v-5.46h-.07l-2.13,5.46h-.76l-2.13-5.46h-.06v5.46h-.81v-7.23Z"/><path class="cls-7" d="M882.69,673c-.9,0-1.5.5-1.5,1.19s.81,1,1.32,1.19l.69.2c.73.2,1.94.64,1.94,2,0,1.18-.9,2.1-2.49,2.1a2.2,2.2,0,0,1-2.48-2H881c.07.81.78,1.19,1.6,1.19s1.66-.51,1.66-1.3-.64-1-1.36-1.19l-.84-.25c-1.08-.32-1.75-.9-1.75-1.88a2.38,2.38,0,0,1,4.69-.11h-.83A1.36,1.36,0,0,0,882.69,673Z"/><path class="cls-7" d="M891.37,672.32v4.78a2.68,2.68,0,0,1-5.35,0v-4.78h.85V677a1.82,1.82,0,0,0,3.64,0v-4.71Z"/><path class="cls-7" d="M898,679.55h-.82l-3.71-5.62h-.07v5.62h-.85v-7.23h.83l3.72,5.64h.07v-5.64H898Z"/><path class="cls-7" d="M901.91,673.06c-1.21,0-2.18,1-2.18,2.87s1,2.87,2.23,2.87a1.94,1.94,0,0,0,2-2.09h-1.8v-.79h2.63v.78a2.73,2.73,0,0,1-2.81,2.94c-1.83,0-3.06-1.43-3.06-3.71s1.25-3.71,3-3.71a2.8,2.8,0,0,1,2.82,2.36h-.89A2,2,0,0,0,901.91,673.06Z"/><path class="cls-7" d="M862.09,682.54l2.31,5.95h.08l2.31-5.95h1v7.23H867v-5.46h-.07l-2.13,5.46h-.76l-2.13-5.46h-.06v5.46h-.8v-7.23Z"/><path class="cls-7" d="M869,682.54h4.16v.8h-3.31v2.41h3.09v.79h-3.09V689h3.36v.8H869Z"/><path class="cls-7" d="M874.17,689.77v-7.23h2.22c2,0,3.18,1.36,3.18,3.6s-1.18,3.63-3.27,3.63Zm2.08-.8c1.68,0,2.49-1.07,2.49-2.83s-.81-2.8-2.41-2.8H875V689Z"/><path class="cls-7" d="M881.33,689.77h-.85v-7.23h.85Z"/><path class="cls-7" d="M885.27,683.28c-1.24,0-2.21,1-2.21,2.87s1,2.87,2.21,2.87a1.87,1.87,0,0,0,1.91-1.52H888a2.72,2.72,0,0,1-2.77,2.36c-1.76,0-3-1.43-3-3.71s1.27-3.71,3-3.71a2.72,2.72,0,0,1,2.77,2.37h-.86A1.87,1.87,0,0,0,885.27,683.28Z"/><path class="cls-7" d="M888.3,689.77l2.51-7.23h.9l2.51,7.23h-.9l-.68-2h-2.76l-.68,2Zm4.08-2.82-1.09-3.24h-.05l-1.09,3.24Z"/><path class="cls-7" d="M894.81,682.54h.85V689h3.18v.8h-4Z"/><path class="cls-7" d="M904.51,683.28c-1.24,0-2.21,1-2.21,2.87s1,2.87,2.21,2.87a1.87,1.87,0,0,0,1.91-1.52h.86a2.72,2.72,0,0,1-2.77,2.36c-1.76,0-3-1.43-3-3.71s1.27-3.71,3-3.71a2.72,2.72,0,0,1,2.77,2.37h-.86A1.87,1.87,0,0,0,904.51,683.28Z"/><path class="cls-7" d="M908.14,682.54h4.16v.8H909v2.41h3.09v.79H909V689h3.36v.8h-4.21Z"/><path class="cls-7" d="M918.76,689.77h-.82l-3.72-5.62h-.07v5.62h-.85v-7.23h.82l3.72,5.64h.07v-5.64h.84Z"/><path class="cls-7" d="M919.56,682.54h5.17v.8h-2.15v6.43h-.86v-6.43h-2.16Z"/><path class="cls-7" d="M925.53,682.54h4.16v.8h-3.31v2.41h3.09v.79h-3.09V689h3.36v.8h-4.21Z"/><path class="cls-7" d="M930.7,682.54H933a2.08,2.08,0,0,1,2.34,2.22,2,2,0,0,1-1.28,2l1.55,3h-1L933.21,687h-1.66v2.81h-.85Zm2.31,3.61c1.09,0,1.52-.52,1.52-1.38s-.43-1.43-1.53-1.43h-1.45v2.81Z"/><path class="cls-7" d="M865.58,697.4l-.41.62a3.64,3.64,0,0,1-2-2,3.71,3.71,0,0,1-2.13,2.28l-.4-.62a3.28,3.28,0,0,0,2.14-3v-.89h.73v.88A3.07,3.07,0,0,0,865.58,697.4Zm-3.67,1.47h5.32V702h-5.32Zm4.59,2.51v-1.87h-3.86v1.87Zm0-8.11h.74v2.22h1.27v.66h-1.27v2.32h-.74Z"/><path class="cls-7" d="M873.69,697.49l-.42.61a3.56,3.56,0,0,1-2-2,3.69,3.69,0,0,1-2.15,2.29l-.4-.63a3.25,3.25,0,0,0,2.17-3v-.92h.74v.89A3,3,0,0,0,873.69,697.49Zm-.8,1.3c1.75,0,2.82.61,2.82,1.68s-1.07,1.66-2.82,1.66-2.83-.6-2.82-1.66S871.13,698.78,872.89,698.78Zm0,2.71c1.29,0,2.09-.39,2.09-1s-.8-1.06-2.09-1.06-2.09.4-2.09,1.06S871.6,701.49,872.89,701.49Zm.17-6.32h1.88v-1.9h.74v5.26h-.74v-2.71h-1.88Z"/><path class="cls-7" d="M881.92,699.47l-.45.64a4.77,4.77,0,0,1-2.13-2.84,5,5,0,0,1-2.13,3l-.48-.63a4.74,4.74,0,0,0,2.22-4V694h.75v1.62A4.41,4.41,0,0,0,881.92,699.47ZM881,696.3h2v-3h.74v8.89H883v-5.22h-2Z"/><path class="cls-7" d="M884.81,697h7.68v.63H889v.84h2.49v2h-5v.92h5.26V702h-6v-2.13h5v-.8h-5v-.6h2.53v-.84h-3.46Zm6.81-2.13c0,1-1.1,1.54-3,1.55s-3-.55-3-1.55,1.11-1.54,3-1.54S891.62,693.93,891.62,694.92Zm-3,.95c1.4,0,2.22-.34,2.22-.95s-.82-.93-2.22-.94-2.21.35-2.21.94S887.25,695.85,888.64,695.86Z"/><path class="cls-7" d="M894,695.25h2.35v-1.43h.74v.91h2v-1.45h.74v5.38h-.74V697.2h-2V698h-3.83v-4.17H894Zm2.35,2.1v-1.47H894v1.47Zm.68,1.47c1.75,0,2.82.61,2.82,1.67s-1.07,1.64-2.82,1.64-2.83-.6-2.82-1.64S895.3,698.83,897.05,698.82Zm0,2.68c1.29,0,2.09-.38,2.09-1s-.8-1-2.09-1.05-2.09.39-2.09,1.05S895.76,701.5,897.05,701.5Zm2.05-5v-1.18h-2v1.18Z"/><path class="cls-7" d="M906.36,697.12l.05.57a23,23,0,0,1-2.32.26v1.75h-.74V698c-.85,0-1.67,0-2.37,0l-.1-.64A45.45,45.45,0,0,0,906.36,697.12Zm-2.72-3.49c1.23,0,2.08.61,2.09,1.55s-.85,1.54-2.09,1.54-2.09-.59-2.09-1.54S902.39,693.64,903.64,693.64Zm-1.56,5.72h.74v1.94h5.24v.65h-6Zm1.56-3.22c.8,0,1.37-.37,1.37-1s-.58-1-1.37-1-1.39.38-1.38,1S902.82,696.14,903.64,696.14Zm4.22,3.88h-.75v-.92h-1.74v-.57h1.74v-5.24h.75Z"/><path class="cls-7" d="M374.37,255.85h.85v3.57h.09l3.06-3.57h1.11l-2.87,3.26,2.87,4h-1l-2.36-3.35-.86,1v2.33h-.85Z"/><path class="cls-7" d="M379.48,263.08l2.51-7.23h.9l2.51,7.23h-.9l-.68-2h-2.76l-.68,2Zm4.08-2.82L382.47,257h-.05l-1.09,3.24Z"/><path class="cls-7" d="M391.44,263.08h-.82l-3.71-5.63h-.07v5.63H386v-7.23h.82l3.72,5.64h.07v-5.64h.84Z"/><path class="cls-7" d="M395.36,256.59c-1.21,0-2.18,1-2.18,2.87s1,2.87,2.23,2.87a1.94,1.94,0,0,0,2-2.09h-1.8v-.79h2.63v.78a2.73,2.73,0,0,1-2.81,2.94c-1.83,0-3.06-1.43-3.06-3.71s1.25-3.71,3-3.71a2.8,2.8,0,0,1,2.82,2.36h-.88A2,2,0,0,0,395.36,256.59Z"/><path class="cls-7" d="M399.16,255.85h2.41a1.87,1.87,0,0,1,2.11,1.92,1.43,1.43,0,0,1-1.12,1.51v.07a1.66,1.66,0,0,1,1.39,1.81c0,1.09-.68,1.92-2.3,1.92h-2.49Zm2.38,3.17a1.24,1.24,0,0,0,1.33-1.24c0-.63-.4-1.13-1.3-1.13H400V259Zm.11,3.26c1.07,0,1.49-.5,1.49-1.13a1.36,1.36,0,0,0-1.45-1.36H400v2.48Z"/><path class="cls-7" d="M410.18,255.85v4.78a2.68,2.68,0,0,1-5.35,0v-4.78h.85v4.71a1.82,1.82,0,0,0,3.64,0v-4.71Z"/><path class="cls-7" d="M411.36,255.85h.85v3.57h.09l3.06-3.57h1.11l-2.87,3.26,2.87,4h-1l-2.36-3.35-.86,1v2.33h-.85Z"/><path class="cls-7" d="M376.6,266.77c-.91,0-1.5.5-1.5,1.19s.8,1,1.32,1.19l.69.2c.73.2,1.94.64,1.94,2,0,1.18-.9,2.1-2.49,2.1a2.2,2.2,0,0,1-2.48-2H375c.07.81.78,1.19,1.6,1.19s1.66-.52,1.66-1.3-.64-1-1.36-1.19l-.84-.25c-1.08-.32-1.75-.9-1.75-1.88a2.38,2.38,0,0,1,4.69-.11h-.83A1.36,1.36,0,0,0,376.6,266.77Z"/><path class="cls-7" d="M379.33,273.3l2.51-7.23h.9l2.51,7.23h-.9l-.68-2h-2.76l-.68,2Zm4.08-2.82-1.09-3.24h-.05l-1.09,3.24Z"/><path class="cls-7" d="M386.87,266.07l2.31,5.95h.08l2.31-5.95h1v7.23h-.8v-5.46h-.07l-2.13,5.46h-.76l-2.13-5.46h-.06v5.46h-.8v-7.23Z"/><path class="cls-7" d="M396,266.77c-.91,0-1.5.5-1.5,1.19s.8,1,1.32,1.19l.69.2c.73.2,1.94.64,1.94,2,0,1.18-.9,2.1-2.49,2.1a2.2,2.2,0,0,1-2.48-2h.88c.07.81.78,1.19,1.6,1.19s1.66-.52,1.66-1.3-.64-1-1.36-1.19l-.84-.25c-1.08-.32-1.75-.9-1.75-1.88a2.38,2.38,0,0,1,4.69-.11h-.83A1.36,1.36,0,0,0,396,266.77Z"/><path class="cls-7" d="M404.68,266.07v4.78a2.68,2.68,0,0,1-5.35,0v-4.78h.85v4.71a1.82,1.82,0,0,0,3.64,0v-4.71Z"/><path class="cls-7" d="M411.31,273.3h-.82l-3.71-5.63h-.07v5.63h-.85v-7.23h.82l3.72,5.64h.07v-5.64h.84Z"/><path class="cls-7" d="M415.23,266.81c-1.21,0-2.18,1-2.18,2.87s1,2.87,2.23,2.87a1.94,1.94,0,0,0,2-2.09h-1.8v-.79h2.63v.78a2.73,2.73,0,0,1-2.81,2.94c-1.83,0-3.06-1.43-3.06-3.71s1.25-3.71,3-3.71a2.8,2.8,0,0,1,2.82,2.36h-.88A2,2,0,0,0,415.23,266.81Z"/><path class="cls-7" d="M421.12,266.07H422v3.21h3.63v-3.21h.86v7.23h-.86v-3.23H422v3.23h-.85Z"/><path class="cls-7" d="M430.41,273.4c-1.76,0-3-1.43-3-3.71s1.27-3.71,3-3.71,3,1.43,3,3.71S432.16,273.4,430.41,273.4Zm0-.84c1.24,0,2.21-1,2.21-2.87s-1-2.87-2.21-2.87-2.21,1-2.21,2.87S429.17,272.56,430.41,272.56Z"/><path class="cls-7" d="M436.58,266.77c-.91,0-1.5.5-1.5,1.19s.8,1,1.32,1.19l.69.2c.73.2,1.94.64,1.94,2,0,1.18-.9,2.1-2.49,2.1a2.2,2.2,0,0,1-2.48-2h.88c.07.81.78,1.19,1.6,1.19s1.66-.52,1.66-1.3-.64-1-1.36-1.19l-.84-.25c-1.08-.32-1.75-.9-1.75-1.88a2.38,2.38,0,0,1,4.69-.11h-.83A1.36,1.36,0,0,0,436.58,266.77Z"/><path class="cls-7" d="M439.91,266.07h2.33a2.3,2.3,0,1,1,0,4.6h-1.5v2.63h-.85Zm2.31,3.8a1.5,1.5,0,1,0,0-3h-1.45v3Z"/><path class="cls-7" d="M446.28,273.3h-.85v-7.23h.85Z"/><path class="cls-7" d="M447.08,266.07h5.17v.8H450.1v6.43h-.86v-6.43h-2.16Z"/><path class="cls-7" d="M451.66,273.3l2.51-7.23h.9l2.51,7.23h-.9l-.68-2h-2.76l-.68,2Zm4.08-2.82-1.09-3.24h-.05l-1.09,3.24Z"/><path class="cls-7" d="M458.17,266.07H459v6.43h3.18v.8h-4Z"/><path class="cls-7" d="M377.45,278.11h-3.11v-.65h3.91c0,2.26-1.52,3.92-4,4.68l-.31-.64C376,280.88,377.29,279.65,377.45,278.11Zm.44,4.11c1.69,0,2.76.65,2.76,1.72s-1.07,1.71-2.76,1.71-2.77-.64-2.76-1.71S376.2,282.22,377.88,282.22Zm0,2.8c1.23,0,2-.42,2-1.09s-.8-1.09-2-1.08-2,.41-2,1.08S376.64,285,377.88,285Zm2.66-5.91h1.27v.65h-1.27v2.36h-.74V276.8h.74Z"/><path class="cls-7" d="M389.69,281.79h-3.48v1.05h2.53v2.84H388v-2.19h-5.13v-.64h2.62v-1.05H382v-.64h7.68ZM383,277h.74v1h4.17v-1h.74v3.32H383Zm4.91,2.68v-1.05h-4.17v1.05Z"/><path class="cls-7" d="M395,280.93l-.41.62a3.63,3.63,0,0,1-2-2,3.71,3.71,0,0,1-2.13,2.28l-.4-.62a3.28,3.28,0,0,0,2.14-3v-.89h.73v.88A3.07,3.07,0,0,0,395,280.93Zm-3.67,1.48h5.32v3.15h-5.32Zm4.59,2.51V283h-3.86v1.87Zm0-8.11h.74V279h1.27v.66h-1.27V282h-.74Z"/><path class="cls-7" d="M403.11,281l-.42.61a3.56,3.56,0,0,1-2-2,3.7,3.7,0,0,1-2.15,2.29l-.4-.64a3.25,3.25,0,0,0,2.17-3v-.92H401v.89A3,3,0,0,0,403.11,281Zm-.8,1.3c1.75,0,2.82.61,2.82,1.68s-1.07,1.66-2.82,1.66-2.83-.6-2.82-1.66S400.56,282.32,402.31,282.32Zm0,2.71c1.29,0,2.09-.39,2.09-1s-.8-1.06-2.09-1.06-2.09.4-2.09,1.06S401,285,402.31,285Zm.17-6.32h1.88v-1.9h.74v5.26h-.74v-2.71h-1.88Z"/><path class="cls-7" d="M407.34,278.78h2.35v-1.43h.74v.91h2V276.8h.74v5.38h-.74v-1.45h-2v.79H406.6v-4.17h.74Zm2.35,2.1v-1.48h-2.35v1.48Zm.68,1.47c1.75,0,2.82.61,2.82,1.67s-1.07,1.64-2.82,1.64-2.83-.6-2.82-1.64S408.61,282.36,410.37,282.35Zm0,2.68c1.29,0,2.09-.38,2.09-1s-.8-1-2.09-1.05-2.09.39-2.09,1.05S409.07,285,410.37,285Zm2.05-5V278.9h-2v1.18Z"/><path class="cls-7" d="M419.67,280.66l.05.57a23,23,0,0,1-2.32.26v1.75h-.74v-1.72c-.85,0-1.67,0-2.37,0l-.1-.64A45.39,45.39,0,0,0,419.67,280.66ZM417,277.17c1.23,0,2.08.61,2.09,1.55s-.85,1.54-2.09,1.54-2.09-.59-2.09-1.54S415.71,277.17,417,277.17Zm-1.56,5.72h.74v1.94h5.24v.65h-6Zm1.56-3.22c.8,0,1.37-.37,1.37-1s-.58-1-1.37-1-1.39.38-1.38,1S416.13,279.67,417,279.67Zm4.22,3.88h-.75v-.92h-1.74v-.57h1.74v-5.24h.75Z"/><path class="cls-7" d="M485.31,203.06c-.91,0-1.5.5-1.5,1.19s.8,1,1.32,1.19l.69.2c.73.2,1.94.64,1.94,2,0,1.18-.9,2.1-2.49,2.1a2.2,2.2,0,0,1-2.48-2h.88c.07.81.78,1.19,1.6,1.19s1.66-.51,1.66-1.3-.64-1-1.36-1.19l-.84-.25c-1.08-.32-1.75-.9-1.75-1.88a2.38,2.38,0,0,1,4.69-.11h-.83A1.36,1.36,0,0,0,485.31,203.06Z"/><path class="cls-7" d="M488.64,202.36h4.16v.8h-3.31v2.41h3.09v.79h-3.09v2.43h3.36v.8h-4.21Z"/><path class="cls-7" d="M496.58,209.69c-1.76,0-3-1.43-3-3.71s1.27-3.71,3-3.71,3,1.43,3,3.71S498.34,209.69,496.58,209.69Zm0-.84c1.24,0,2.21-1,2.21-2.87s-1-2.87-2.21-2.87-2.21,1-2.21,2.87S495.34,208.85,496.58,208.85Z"/><path class="cls-7" d="M505.88,202.36v4.78a2.68,2.68,0,0,1-5.35,0v-4.78h.85v4.71a1.82,1.82,0,0,0,3.64,0v-4.71Z"/><path class="cls-7" d="M507.05,202.36h.85v6.43h3.18v.8h-4Z"/><path class="cls-7" d="M519.44,209.59h-.82L514.9,204h-.07v5.63H514v-7.23h.82l3.72,5.64h.07v-5.64h.84Z"/><path class="cls-7" d="M520,209.59l2.51-7.23h.9l2.51,7.23h-.9l-.68-2H521.6l-.68,2Zm4.08-2.82L523,203.53H523l-1.09,3.24Z"/><path class="cls-7" d="M525.35,202.36h5.17v.8h-2.15v6.43h-.86v-6.43h-2.16Z"/><path class="cls-7" d="M532.18,209.59h-.85v-7.23h.85Z"/><path class="cls-7" d="M536.12,209.69c-1.76,0-3-1.43-3-3.71s1.27-3.71,3-3.71,3,1.43,3,3.71S537.88,209.69,536.12,209.69Zm0-.84c1.24,0,2.21-1,2.21-2.87s-1-2.87-2.21-2.87-2.21,1-2.21,2.87S534.88,208.85,536.12,208.85Z"/><path class="cls-7" d="M545.52,209.59h-.82L541,204h-.07v5.63h-.85v-7.23h.82l3.72,5.64h.07v-5.64h.84Z"/><path class="cls-7" d="M546.1,209.59l2.51-7.23h.9l2.51,7.23h-.9l-.68-2h-2.76l-.68,2Zm4.08-2.82-1.09-3.24H549l-1.09,3.24Z"/><path class="cls-7" d="M552.62,202.36h.85v6.43h3.18v.8h-4Z"/><path class="cls-7" d="M564.9,202.36v4.78a2.68,2.68,0,0,1-5.35,0v-4.78h.85v4.71a1.82,1.82,0,0,0,3.64,0v-4.71Z"/><path class="cls-7" d="M571.52,209.59h-.82L567,204h-.07v5.63h-.85v-7.23h.82l3.72,5.64h.07v-5.64h.84Z"/><path class="cls-7" d="M573.55,209.59h-.85v-7.23h.85Z"/><path class="cls-7" d="M577.06,208.43h.08l2-6.06h.9l-2.51,7.23h-.9l-2.51-7.23H575Z"/><path class="cls-7" d="M580.65,202.36h4.16v.8H581.5v2.41h3.09v.79H581.5v2.43h3.36v.8h-4.21Z"/><path class="cls-7" d="M585.82,202.36h2.33a2.08,2.08,0,0,1,2.34,2.22,2,2,0,0,1-1.28,2l1.55,3h-1l-1.44-2.81h-1.66v2.81h-.85Zm2.31,3.61c1.09,0,1.52-.52,1.52-1.38s-.43-1.43-1.53-1.43h-1.45V206Z"/><path class="cls-7" d="M593.61,203.06c-.9,0-1.5.5-1.5,1.19s.81,1,1.32,1.19l.69.2c.73.2,1.94.64,1.94,2,0,1.18-.9,2.1-2.49,2.1a2.2,2.2,0,0,1-2.48-2H592c.07.81.78,1.19,1.6,1.19s1.66-.51,1.66-1.3-.64-1-1.36-1.19l-.84-.25c-1.08-.32-1.75-.9-1.75-1.88a2.38,2.38,0,0,1,4.69-.11h-.83A1.36,1.36,0,0,0,593.61,203.06Z"/><path class="cls-7" d="M597.79,209.59h-.85v-7.23h.85Z"/><path class="cls-7" d="M598.59,202.36h5.17v.8h-2.15v6.43h-.86v-6.43h-2.16Z"/><path class="cls-7" d="M605,202.36l1.89,3.36h.08l1.89-3.36h1l-2.48,4.26v3h-.86v-3L604,202.36Z"/><path class="cls-7" d="M483.09,212.58h.85v3.21h3.63v-3.21h.86v7.23h-.86v-3.23h-3.63v3.23h-.85Z"/><path class="cls-7" d="M492.38,219.91c-1.76,0-3-1.43-3-3.71s1.27-3.71,3-3.71,3,1.43,3,3.71S494.13,219.91,492.38,219.91Zm0-.84c1.24,0,2.21-1,2.21-2.87s-1-2.87-2.21-2.87-2.21,1-2.21,2.87S491.14,219.07,492.38,219.07Z"/><path class="cls-7" d="M498.55,213.28c-.91,0-1.5.5-1.5,1.19s.8,1,1.32,1.19l.69.2c.73.2,1.94.64,1.94,2,0,1.18-.9,2.1-2.49,2.1a2.2,2.2,0,0,1-2.48-2h.88c.07.81.78,1.19,1.6,1.19s1.66-.52,1.66-1.3-.64-1-1.36-1.19l-.84-.25c-1.08-.32-1.75-.9-1.75-1.88a2.38,2.38,0,0,1,4.69-.11h-.83A1.36,1.36,0,0,0,498.55,213.28Z"/><path class="cls-7" d="M501.88,212.58h2.33a2.3,2.3,0,1,1,0,4.6h-1.5v2.63h-.85Zm2.31,3.8a1.5,1.5,0,1,0,0-3h-1.45v3Z"/><path class="cls-7" d="M508.25,219.81h-.85v-7.23h.85Z"/><path class="cls-7" d="M509.05,212.58h5.17v.8h-2.15v6.43h-.86v-6.43h-2.16Z"/><path class="cls-7" d="M513.63,219.81l2.51-7.23h.9l2.51,7.23h-.9l-.68-2h-2.76l-.68,2Zm4.08-2.82-1.09-3.24h-.05L515.48,217Z"/><path class="cls-7" d="M520.14,212.58H521V219h3.18v.8h-4Z"/><path class="cls-7" d="M487.84,229.51l-.45.64a4.77,4.77,0,0,1-2.13-2.84,5,5,0,0,1-2.13,3l-.48-.63a4.74,4.74,0,0,0,2.22-4v-1.62h.75v1.62A4.41,4.41,0,0,0,487.84,229.51Zm-.92-3.17h2v-3h.74v8.89h-.74V227h-2Z"/><path class="cls-7" d="M490.73,227.09h7.68v.63h-3.48v.84h2.49v2h-5v.92h5.26v.62h-6V230h5v-.8h-5v-.6h2.53v-.84h-3.46Zm6.81-2.13c0,1-1.1,1.54-3,1.55s-3-.55-3-1.55,1.11-1.54,3-1.54S497.54,224,497.54,225Zm-3,.95c1.4,0,2.22-.34,2.22-.95s-.82-.93-2.22-.94-2.21.35-2.21.94S493.17,225.9,494.56,225.9Z"/><path class="cls-7" d="M499.09,224.4h3.16V225h-2.41v4.28a13,13,0,0,0,2.9-.25l.07.66a13.92,13.92,0,0,1-3.16.27h-.54Zm6.89,7.78h-.71v-4.66H504v4.19h-.69v-8.21H504v3.37h1.23v-3.56H506Z"/><path class="cls-7" d="M511.88,224.9h-5v-.63H509v-1h.74v1h2.14Zm-2.51.47c1.21,0,2,.63,2,1.6s-.82,1.59-2,1.59-2-.63-2-1.59S508.15,225.37,509.37,225.37Zm-1.46,4h5.52v2.84h-.74V230h-4.77Zm1.46-1.4c.78,0,1.31-.38,1.32-1s-.54-1-1.32-1-1.33.4-1.32,1S508.57,227.94,509.37,227.94Zm3.31-4.63h.74v2.46h1.27v.66h-1.27v2.42h-.74Z"/><path class="cls-7" d="M514.89,230.27h1.9v-2.92h.74v2.92h1.36v-2.92h.73v2.92h2.94v.66h-7.68Zm6.77-5.07a20.75,20.75,0,0,1-.3,3.93l-.73-.09a19,19,0,0,0,.29-3.84v-.34H515.7v-.65h6Z"/><path class="cls-7" d="M524.11,225.29h2.35v-1.43h.74v.91h2v-1.45h.74v5.38h-.74v-1.45h-2V228h-3.83v-4.17h.74Zm2.35,2.1v-1.48h-2.35v1.48Zm.68,1.47c1.75,0,2.82.61,2.82,1.67s-1.07,1.64-2.82,1.64-2.83-.6-2.82-1.64S525.38,228.87,527.14,228.86Zm0,2.68c1.29,0,2.09-.38,2.09-1s-.8-1-2.09-1.05-2.09.39-2.09,1.05S525.84,231.54,527.14,231.54Zm2.05-5v-1.18h-2v1.18Z"/><path class="cls-7" d="M536.44,227.17l.05.57a23,23,0,0,1-2.32.26v1.75h-.74V228c-.85,0-1.67,0-2.37,0l-.1-.64A45.4,45.4,0,0,0,536.44,227.17Zm-2.71-3.49c1.23,0,2.08.61,2.08,1.55s-.85,1.54-2.08,1.54-2.09-.59-2.09-1.54S532.48,223.68,533.72,223.68Zm-1.56,5.72h.74v1.94h5.24V232h-6Zm1.56-3.22c.8,0,1.37-.37,1.37-1s-.58-1-1.37-1-1.39.38-1.38,1S532.9,226.18,533.72,226.18Zm4.22,3.88h-.75v-.92h-1.74v-.57h1.74v-5.24h.75Z"/><path class="cls-7" d="M942.45,498.82,945,491.6h.9l2.51,7.23h-.9l-.68-2H944l-.68,2Zm4.08-2.82-1.09-3.24h-.05L944.3,496Z"/><path class="cls-7" d="M951.19,492.29c-.9,0-1.5.5-1.5,1.19s.81,1,1.32,1.19l.69.2c.73.2,1.94.64,1.94,2,0,1.18-.9,2.1-2.49,2.1a2.2,2.2,0,0,1-2.48-2h.88c.07.81.78,1.19,1.6,1.19s1.66-.51,1.66-1.3-.64-1-1.36-1.19l-.84-.25c-1.08-.32-1.75-.9-1.75-1.88a2.38,2.38,0,0,1,4.69-.11h-.83A1.36,1.36,0,0,0,951.19,492.29Z"/><path class="cls-7" d="M953.92,498.82l2.51-7.23h.9l2.51,7.23h-.9l-.68-2H955.5l-.68,2ZM958,496l-1.09-3.24h-.05L955.76,496Z"/><path class="cls-7" d="M965.88,498.82h-.82l-3.71-5.63h-.07v5.63h-.85V491.6h.82l3.72,5.64H965V491.6h.84Z"/><path class="cls-7" d="M944.07,501.82l2.31,5.95h.08l2.31-5.95h1V509H949v-5.46h-.07L946.8,509H946l-2.13-5.46h-.06V509H943v-7.23Z"/><path class="cls-7" d="M951,501.82h4.16v.8h-3.31V505h3.09v.79h-3.09v2.43h3.36v.8H951Z"/><path class="cls-7" d="M956.15,509v-7.23h2.22c2,0,3.18,1.36,3.18,3.6s-1.18,3.63-3.27,3.63Zm2.08-.8c1.68,0,2.49-1.07,2.49-2.83s-.81-2.8-2.41-2.8H957v5.63Z"/><path class="cls-7" d="M963.31,509h-.85v-7.23h.85Z"/><path class="cls-7" d="M967.26,502.56c-1.24,0-2.21,1-2.21,2.87s1,2.87,2.21,2.87a1.87,1.87,0,0,0,1.91-1.52H970a2.72,2.72,0,0,1-2.77,2.36c-1.76,0-3-1.43-3-3.71s1.27-3.71,3-3.71a2.72,2.72,0,0,1,2.77,2.37h-.86A1.87,1.87,0,0,0,967.26,502.56Z"/><path class="cls-7" d="M970.29,509l2.51-7.23h.9l2.51,7.23h-.9l-.68-2h-2.76l-.68,2Zm4.08-2.82L973.28,503h-.05l-1.09,3.24Z"/><path class="cls-7" d="M976.8,501.82h.85v6.43h3.19v.8h-4Z"/><path class="cls-7" d="M986.5,502.56c-1.24,0-2.21,1-2.21,2.87s1,2.87,2.21,2.87a1.87,1.87,0,0,0,1.91-1.52h.86a2.72,2.72,0,0,1-2.77,2.36c-1.76,0-3-1.43-3-3.71s1.27-3.71,3-3.71a2.72,2.72,0,0,1,2.77,2.37h-.86A1.87,1.87,0,0,0,986.5,502.56Z"/><path class="cls-7" d="M990.12,501.82h4.16v.8H991V505h3.09v.79H991v2.43h3.36v.8h-4.21Z"/><path class="cls-7" d="M1000.74,509h-.82l-3.71-5.63h-.07V509h-.85v-7.23h.82l3.72,5.64h.07v-5.64h.84Z"/><path class="cls-7" d="M1001.54,501.82h5.17v.8h-2.15V509h-.86v-6.43h-2.16Z"/><path class="cls-7" d="M1007.51,501.82h4.16v.8h-3.31V505h3.09v.79h-3.09v2.43h3.36v.8h-4.21Z"/><path class="cls-7" d="M1012.69,501.82H1015a2.08,2.08,0,0,1,2.34,2.22,2,2,0,0,1-1.28,2l1.55,3h-1l-1.44-2.81h-1.66V509h-.85Zm2.31,3.61c1.09,0,1.52-.52,1.52-1.38s-.43-1.43-1.53-1.43h-1.45v2.81Z"/><path class="cls-7" d="M947.8,518.74l-.45.64a4.76,4.76,0,0,1-2.13-2.84,5,5,0,0,1-2.13,3l-.48-.63a4.74,4.74,0,0,0,2.22-4v-1.62h.75v1.62A4.41,4.41,0,0,0,947.8,518.74Zm-.92-3.17h2v-3h.74v8.89h-.74v-5.22h-2Z"/><path class="cls-7" d="M950.68,516.32h7.68V517h-3.48v.84h2.49v2h-5v.92h5.26v.62h-6v-2.13h5v-.8h-5v-.6h2.53V517h-3.46Zm6.81-2.13c0,1-1.1,1.54-3,1.55s-3-.55-3-1.55,1.11-1.54,3-1.54S957.5,513.2,957.5,514.19Zm-3,.95c1.4,0,2.22-.34,2.22-.95s-.82-.93-2.22-.94-2.21.35-2.21.94S953.12,515.13,954.52,515.14Z"/><path class="cls-7" d="M963.12,516.32c0,1.89-.89,3.09-2.13,3.09s-2.13-1.2-2.12-3.09.87-3.08,2.12-3.09S963.12,514.44,963.12,516.32ZM961,518.71c.84,0,1.42-.95,1.42-2.39s-.57-2.39-1.42-2.39-1.41,1-1.41,2.39S960.16,518.71,961,518.71Zm3.53-6.17h.74v3.54h1.41v.67h-1.41v4.66h-.74Z"/><path class="cls-7" d="M971.74,517l-.38.63a3.64,3.64,0,0,1-2.07-2,3.68,3.68,0,0,1-2.11,2.27l-.42-.62a3.26,3.26,0,0,0,2.14-3.06v-1.1h.73v1.13A3.08,3.08,0,0,0,971.74,517Zm-3.62,1.45h.76v2.1h4.89v.65h-5.65Zm4.52-5.93h.74v2.72h1.27v.67h-1.27v3.17h-.74Z"/><path class="cls-7" d="M976,514.52h2.35v-1.43h.74V514h2v-1.45h.74v5.38h-.74v-1.45h-2v.79h-3.83v-4.17H976Zm2.35,2.1v-1.47H976v1.47Zm.68,1.47c1.75,0,2.82.61,2.82,1.67s-1.07,1.64-2.82,1.64-2.83-.6-2.82-1.64S977.28,518.1,979,518.09Zm0,2.68c1.29,0,2.09-.38,2.09-1s-.8-1-2.09-1.05-2.09.39-2.08,1.05S977.75,520.78,979,520.78Zm2.05-5v-1.18h-2v1.18Z"/><path class="cls-7" d="M988.34,516.4l.05.57a23,23,0,0,1-2.32.26V519h-.74v-1.72c-.85,0-1.67,0-2.37,0l-.1-.64A45.42,45.42,0,0,0,988.34,516.4Zm-2.71-3.49c1.23,0,2.08.61,2.08,1.55s-.85,1.54-2.08,1.54-2.09-.59-2.09-1.54S984.38,512.91,985.63,512.91Zm-1.56,5.72h.74v1.94h5.24v.65h-6Zm1.56-3.22c.8,0,1.37-.37,1.37-1s-.58-1-1.37-1-1.39.38-1.38,1S984.8,515.41,985.63,515.41Zm4.22,3.88h-.75v-.92h-1.74v-.57h1.74v-5.24h.75Z"/></svg>