<svg id="Layer_1" data-name="Layer 1" xmlns="http://www.w3.org/2000/svg" viewBox="0 0 766.29 447.99"><defs><style>.cls-1{fill:#fff;}</style></defs><title>logo-wh-ver</title><polygon class="cls-1" points="79.01 176.87 79.01 227.72 16.61 227.72 16.61 176.87 0 176.87 0 299.28 16.61 299.28 16.61 238.68 79.01 238.68 79.01 299.28 95.44 299.28 95.44 176.87 79.01 176.87"/><path class="cls-1" d="M751,625.91,700.39,749.19h16.19a68,68,0,0,1,5.28-19.39l10.3-24.9h41.27l17.9,44.29H809.1L757,625.91Zm18.07,68H736.5L752,655.8Z" transform="translate(-577.66 -449.92)"/><path class="cls-1" d="M1146.86,625.91l-50.62,123.28h16.18a68,68,0,0,1,5.28-19.39l10.3-24.9h41.27l17.9,44.29h17.77l-52.13-123.28Zm18.08,68h-32.59l15.46-38.15Z" transform="translate(-577.66 -449.92)"/><path class="cls-1" d="M1057.35,649l1.13,69.75-77-92.9h-7V749.19h15.36c-.85-3.63-2.47-10-2.47-22.27l-1.14-69.36,77,92.52h7V626.78h-15.34a87.06,87.06,0,0,1,2.45,22.27" transform="translate(-577.66 -449.92)"/><path class="cls-1" d="M919.55,649l1.13,69.75-77-92.9h-7V749.19h15.35c-.85-3.63-2.47-10-2.47-22.27l-1.13-69.36,77,92.52h7V626.78H917.1A87,87,0,0,1,919.55,649" transform="translate(-577.66 -449.92)"/><path class="cls-1" d="M1336.86,626.07l-48.53,99.52-48.69-99.7h-7.11v123.3h15.35a82.38,82.38,0,0,1-2.47-22.25l-.44-54.82,38.8,77.95h6.1l38.45-77.86-.65,77H1344V626.07Z" transform="translate(-577.66 -449.92)"/><path class="cls-1" d="M1202.29,513.74c0-37.58-25.31-63.82-61.55-63.82S1079,476.16,1079,513.74c0,37.79,25.31,64.18,61.55,64.18s61.73-26.4,61.73-64.18M1140.74,461c26.59,0,44.47,21.18,44.47,52.7s-18,52.88-44.66,52.88-44.48-21.25-44.48-52.88S1114,461,1140.74,461" transform="translate(-577.66 -449.92)"/><path class="cls-1" d="M887.86,449.92c-36.35,0-61.73,26.24-61.73,63.82,0,37.79,25.31,64.18,61.55,64.18s61.73-26.4,61.73-64.18c0-37.57-25.31-63.82-61.55-63.82m-.18,116.7c-26.59,0-44.47-21.25-44.47-52.88S861.15,461,887.86,461s44.47,21.18,44.47,52.7-17.94,52.88-44.65,52.88" transform="translate(-577.66 -449.92)"/><path class="cls-1" d="M1006.82,576.15h16.43V522.27l41.93-70.58h-17c-.58,2.42-5.85,14.81-9.29,20.92l-21.65,37.64-34.44-58.56H965l41.81,70.58Z" transform="translate(-577.66 -449.92)"/><path class="cls-1" d="M755.54,577.88c24.91,0,42.17-13.95,42.17-35.55,0-17.82-13-30.74-35.44-36.58-17.59-4.81-25.79-12.39-25.79-23.61,0-12.22,9.58-20.86,23.31-20.86,18.53,0,29.66,16.9,31.46,19.83a.14.14,0,0,0,.26-.08V460S779,449.86,759.45,449.92c-22.68,0-38.88,14.31-38.88,34.19,0,17.58,12.69,30.56,36,36.74,16.85,4.64,25.22,12,25.22,23.63,0,13.07-11,22.27-25.57,22.27-21.46,0-36-19.32-36.88-20.51l0,0v21.4a67,67,0,0,0,36.2,10.21" transform="translate(-577.66 -449.92)"/><path class="cls-1" d="M737,863.24a21.72,21.72,0,0,1-4.09,7,17.76,17.76,0,0,1-6.13,4.51,18.53,18.53,0,0,1-7.62,1.58,15.43,15.43,0,0,1-7.37-1.75,13.7,13.7,0,0,1-5-4.22q-3.07,2.47-5.71,4.94h-1.53q.17-2,.3-4.94t.21-6.17q.08-3.28.13-6.69t0-6.3V835.81q0-2.89,0-6.3t-.13-6.73q-.09-3.32-.21-6.35t-.3-5.15a22.88,22.88,0,0,0,3.83.42,15.85,15.85,0,0,0,2-.13l2.21-.3q-.25,1.7-.43,5.41t-.25,8.26q-.09,4.56-.17,9.37t-.17,8.73h.17a20.32,20.32,0,0,1,6.39-6.73,15.23,15.23,0,0,1,8.09-2.13,16.59,16.59,0,0,1,7.67,1.66,16,16,0,0,1,5.37,4.39,18.85,18.85,0,0,1,3.19,6.34,26.92,26.92,0,0,1,1.07,7.62,26.21,26.21,0,0,1-1.49,9M730,847a16.64,16.64,0,0,0-2.56-5.07,10.84,10.84,0,0,0-3.66-3.11,9.36,9.36,0,0,0-4.3-1.06,13.45,13.45,0,0,0-5.07,1,10.27,10.27,0,0,0-4.22,3.24,17.16,17.16,0,0,0-2.85,5.88,31.91,31.91,0,0,0-1.07,8.9q0,17.12,12.43,17.12a8.89,8.89,0,0,0,4.85-1.41,12.64,12.64,0,0,0,3.88-4,22,22,0,0,0,2.6-6.3A33,33,0,0,0,731,854a22.56,22.56,0,0,0-1-6.94" transform="translate(-577.66 -449.92)"/><path class="cls-1" d="M765.55,869.63q-1.49-3.66-3.19-7.71l-3.49-8.26-3.36-7.92-2.77-6.52q-1.19-2.81-1.79-4.17l2,.3a13.78,13.78,0,0,0,3.75,0l2-.3q2.64,8.18,5.88,16.18t6.81,16.52q3.58-7.49,6.86-16T784.16,835a9.49,9.49,0,0,0,5.62,0q-.6,1.19-1.92,4l-3.15,6.81q-1.83,4-4,8.77t-4.43,9.88l-4.47,10.05q-2.22,5-4.09,9.45t-3.28,8.09q-1.41,3.62-2.09,5.75a10.08,10.08,0,0,0-5.79,0A173.13,173.13,0,0,0,768,875.59l-2.43-6" transform="translate(-577.66 -449.92)"/><path class="cls-1" d="M834.75,828q-.21-5.41-.47-11,2,.17,4.13.3t4.13.13q1,0,2.47-.08t2.94-.13q1.49,0,2.85-.13t2.3-.08q1.28,0,3.15.08a25.88,25.88,0,0,1,4,.51,22.43,22.43,0,0,1,4.13,1.28,11.79,11.79,0,0,1,3.71,2.47,12.15,12.15,0,0,1,2.68,4,18.25,18.25,0,0,1-1.4,15.12,17.59,17.59,0,0,1-6,5.45,23.56,23.56,0,0,1-7.5,2.64,41.9,41.9,0,0,1-7,.68q-2,0-3.58,0T842,849v4.68q0,5.62.21,11.07t.47,10.73q-2-.17-4.17-.17t-4.17.17q.25-5.28.47-10.73T835,853.7V839q0-5.62-.21-11M848,846.12a26.22,26.22,0,0,0,5.45-.6,14.54,14.54,0,0,0,5.15-2.17,11.92,11.92,0,0,0,3.83-4.34,17.8,17.8,0,0,0,.47-13.07,8.39,8.39,0,0,0-2.85-3.58,11.13,11.13,0,0,0-4.47-1.75,34.45,34.45,0,0,0-6-.47H842v25.3a26.28,26.28,0,0,0,6,.68" transform="translate(-577.66 -449.92)"/><path class="cls-1" d="M938.28,875.5a16.08,16.08,0,0,0-2.26-.17h-4.51a16,16,0,0,0-2.26.17q-.6-2-1.62-4.73T925.38,865l-2.51-6.13q-1.28-3.11-2.38-5.92-2.73-.09-5.54-.13t-5.62,0q-2.64,0-5.2,0t-5.2.13q-2.73,6.64-4.94,12.65t-3.32,9.92a29.31,29.31,0,0,0-6.3,0q6.9-14.9,13.46-29.64t13.2-30h1.62l4.43,10.69q2.38,5.75,4.85,11.63t4.94,11.67q2.47,5.79,4.64,10.77t3.92,8.9q1.74,3.92,2.85,6M900.55,849q2.21,0,4.6.09t4.6.08q2.38,0,4.77,0t4.77-.13l-9.45-21.64Z" transform="translate(-577.66 -449.92)"/><path class="cls-1" d="M961.49,828q-.21-5.41-.47-11,2.47.17,4.85.3t4.85.13q2.47,0,4.86-.21t4.85-.21a33,33,0,0,1,6.82.68,16.58,16.58,0,0,1,5.66,2.26,11.39,11.39,0,0,1,3.83,4.13,14.77,14.77,0,0,1-.43,13.42,17.08,17.08,0,0,1-4.47,4.85,22.1,22.1,0,0,1-5.66,3,28.46,28.46,0,0,1-5.49,1.41q1,1.28,2.81,3.58t4,5.07q2.21,2.77,4.6,5.79t4.6,5.79q2.21,2.77,4.17,5.07t3.15,3.49a19.07,19.07,0,0,0-2.56-.17h-5a17.25,17.25,0,0,0-2.47.17q-1.28-1.79-3.87-5.37t-5.75-7.67q-3.15-4.09-6.43-8.13t-6-6.86h-3.24v6.22q0,5.62.21,11.07t.47,10.73q-2-.17-4.17-.17t-4.17.17q.25-5.28.47-10.73t.21-11.07V839q0-5.62-.21-11m9.8,16.23q1.41.09,3.11.09a26.77,26.77,0,0,0,5.49-.6,15.9,15.9,0,0,0,5.24-2.09,12.41,12.41,0,0,0,4-4,11.74,11.74,0,0,0,1.58-6.35,11,11,0,0,0-1.24-5.49,9.86,9.86,0,0,0-3.19-3.45,12.23,12.23,0,0,0-4.26-1.75,22.68,22.68,0,0,0-4.51-.47q-3,0-4.94.13t-3.32.3q-.17,4.69-.34,9.28t-.17,9.2v4.85a17.53,17.53,0,0,0,2.6.34" transform="translate(-577.66 -449.92)"/><path class="cls-1" d="M1054.46,853.4q-11.07-11.88-22.15-23.64-.09,2.39-.17,6.39t-.09,10.9q0,1.79,0,4.43t.08,5.54q0,2.9.13,5.88t.17,5.54q.08,2.56.17,4.47t.17,2.6a23.87,23.87,0,0,0-3-.17,26.73,26.73,0,0,0-3.15.17q.17-.85.38-3.15t.38-5.49q.17-3.2.38-6.94t.34-7.5q.13-3.75.21-7.33t.08-6.39q0-8.18,0-14.05t-.21-8.77h1.36l11.12,12.05q5.92,6.43,11.75,12.69t11.07,11.84q5.24,5.58,9.16,9.5V850.38q0-8.95-.13-17.42t-.55-16a12.21,12.21,0,0,0,2.9.43,11.84,11.84,0,0,0,2.73-.43q-.17,1.88-.38,5.62t-.43,8q-.21,4.26-.38,8.35t-.17,6.56v5.11q0,2.9,0,6t.09,6.35q0,3.19.08,6t0,4.81v2.81h-1.19q-9.8-11.33-20.87-23.21" transform="translate(-577.66 -449.92)"/><path class="cls-1" d="M1152.75,875.5a16.07,16.07,0,0,0-2.26-.17H1146a16,16,0,0,0-2.26.17q-.6-2-1.62-4.73t-2.26-5.79l-2.51-6.13q-1.28-3.11-2.39-5.92-2.73-.09-5.54-.13t-5.62,0q-2.64,0-5.2,0t-5.19.13q-2.73,6.64-4.94,12.65t-3.32,9.92a29.31,29.31,0,0,0-6.3,0q6.9-14.9,13.46-29.64t13.2-30h1.62l4.43,10.69q2.38,5.75,4.86,11.63t4.94,11.67q2.47,5.79,4.64,10.77t3.92,8.9q1.74,3.92,2.85,6M1115,849q2.22,0,4.6.09t4.6.08q2.38,0,4.77,0t4.77-.13l-9.45-21.64Z" transform="translate(-577.66 -449.92)"/><path class="cls-1" d="M1176.13,867.54a14,14,0,0,0,2.81,2.85,14.26,14.26,0,0,0,8.82,2.9,12.6,12.6,0,0,0,5.07-1,11.3,11.3,0,0,0,6.26-6.56,13.53,13.53,0,0,0,.85-4.81,9.15,9.15,0,0,0-2-6.22,16.54,16.54,0,0,0-5-3.83,58.19,58.19,0,0,0-6.43-2.81,33.18,33.18,0,0,1-6.43-3.19,17,17,0,0,1-5-4.9,14.15,14.15,0,0,1-2-8,16.15,16.15,0,0,1,1.28-6.51,14.18,14.18,0,0,1,3.71-5.07,17.55,17.55,0,0,1,5.83-3.32,23.12,23.12,0,0,1,7.67-1.19,22.8,22.8,0,0,1,7.07,1,17.62,17.62,0,0,1,5.54,3,18.53,18.53,0,0,0-1.28,3.07q-.51,1.62-1,4.09h-1a22,22,0,0,0-1.15-2.6,10.07,10.07,0,0,0-2-2.6,11,11,0,0,0-2.94-2,9.47,9.47,0,0,0-4.09-.81,12.16,12.16,0,0,0-4.39.77,10.48,10.48,0,0,0-3.49,2.17,9.55,9.55,0,0,0-2.3,3.37,11,11,0,0,0-.81,4.26,9.27,9.27,0,0,0,2,6.3,17.07,17.07,0,0,0,5,3.88,49.15,49.15,0,0,0,6.43,2.81,36.22,36.22,0,0,1,6.43,3,16.47,16.47,0,0,1,5,4.6,12.67,12.67,0,0,1,2,7.49,19.65,19.65,0,0,1-1.4,7.41,17.41,17.41,0,0,1-4.09,6.09,18.19,18.19,0,0,1-6.56,4,25.75,25.75,0,0,1-8.82,1.4,22,22,0,0,1-8.56-1.4,23.39,23.39,0,0,1-5.49-3.19,20,20,0,0,0,1.07-3.54q.3-1.57.55-4h1a17,17,0,0,0,1.83,3.11" transform="translate(-577.66 -449.92)"/></svg>