<svg id="Layer_1" data-name="Layer 1" xmlns="http://www.w3.org/2000/svg" viewBox="0 0 1188.82 278.02"><defs><style>.cls-1{fill:#fff;}</style></defs><title>logo-wh-hor</title><polygon class="cls-1" points="577.32 2.49 577.32 47.68 521.8 47.68 521.8 2.49 507.03 2.49 507.03 111.25 521.8 111.25 521.8 57.4 577.32 57.4 577.32 111.25 591.94 111.25 591.94 2.49 577.32 2.49"/><path class="cls-1" d="M661.25,1.71l-45,109.54h14.39A59.77,59.77,0,0,1,635.32,94l9.15-22.12h36.72l15.92,39.36h15.82L666.56,1.71Zm16.08,60.45h-29l13.76-33.9Z"/><path class="cls-1" d="M1013.45,1.71l-45,109.54h14.4A59.9,59.9,0,0,1,987.51,94l9.16-22.12h36.72l15.92,39.36h15.82L1018.74,1.71Zm16.08,60.45h-29l13.75-33.9Z"/><path class="cls-1" d="M933.81,22.27l1,62L866.35,1.71H860.1V111.25h13.66a76.14,76.14,0,0,1-2.19-19.78l-1-61.63L939,112h6.25V2.49H931.64a77.21,77.21,0,0,1,2.18,19.78"/><path class="cls-1" d="M811.21,22.27l1,62L743.75,1.71h-6.26V111.25h13.66A76.13,76.13,0,0,1,749,91.47l-1-61.63L816.42,112h6.26V2.49H809a77.21,77.21,0,0,1,2.18,19.78"/><path class="cls-1" d="M1182.5,1.86l-43.18,88.43L1096,1.7h-6.32V111.25h13.66a73.64,73.64,0,0,1-2.19-19.76l-.39-48.71L1135.29,112h5.42l34.2-69.17-.57,68.38h14.48V1.86Z"/><path class="cls-1" d="M429.71,56.71C429.71,23.32,407.19,0,374.95,0S320,23.32,320,56.71c0,33.57,22.52,57,54.77,57s54.93-23.45,54.93-57M374.95,9.88c23.67,0,39.56,18.82,39.56,46.83s-16,47-39.73,47-39.56-18.89-39.56-47,16-46.83,39.73-46.83"/><path class="cls-1" d="M150,0C117.61,0,95,23.32,95,56.71c0,33.57,22.52,57,54.77,57s54.93-23.45,54.93-57C204.72,23.32,182.2,0,150,0m-.16,103.7c-23.67,0-39.56-18.88-39.56-47S126.19,9.89,150,9.89s39.56,18.82,39.56,46.83-16,47-39.73,47"/><path class="cls-1" d="M255.79,112.16h14.62V64.29L307.71,1.58H292.63c-.53,2.14-5.22,13.16-8.27,18.58L265.11,53.6l-30.66-52H218.6l37.19,62.71Z"/><path class="cls-1" d="M32.23,113.69c22.16,0,37.52-12.4,37.52-31.58,0-15.83-11.59-27.32-31.52-32.5-15.67-4.27-23-11-23-21C15.26,17.76,23.79,10.1,36,10.1c16.48,0,26.4,15,28,17.61a.12.12,0,0,0,.17,0,.12.12,0,0,0,.06-.1V8.93A48.18,48.18,0,0,0,35.7,0C15.52,0,1.11,12.71,1.11,30.37,1.11,46,12.41,57.52,33.16,63c15,4.12,22.43,10.66,22.43,21,0,11.62-9.76,19.79-22.74,19.79-19.1,0-32-17.17-32.81-18.23,0,0,0,0,0,0v19a59.77,59.77,0,0,0,32.22,9.08"/><path class="cls-1" d="M296.89,250.63q.21-3.62.37-8t.21-9q.05-4.53.11-9.06t.05-8.36v-16q0-4.32-.05-8.42t-.16-7.19q0-1.7-.05-3.14c0-1-.07-1.92-.11-2.88s-.09-2-.16-3-.14-2.22-.21-3.57c1,.14,9.45.43,11.3,0q-.21,3.3-.32,5.86t-.16,4.85q-.06,2.29-.11,4.58t-.11,5.22q-.06,2.93-.11,6.61t-.16,8.79q.74-1.06,2-2.72a16,16,0,0,1,3.36-3.14,22,22,0,0,1,5-2.61,19.56,19.56,0,0,1,7-1.12,25.45,25.45,0,0,1,8.9,1.6,21.85,21.85,0,0,1,7.67,4.85,23.34,23.34,0,0,1,5.33,8.1,30,30,0,0,1,2,11.35,34.36,34.36,0,0,1-1.76,11.14,25.74,25.74,0,0,1-5.06,8.9,23.42,23.42,0,0,1-8,5.86,26.14,26.14,0,0,1-10.82,2.13,24.19,24.19,0,0,1-6.08-.69,20.19,20.19,0,0,1-4.69-1.81,19.25,19.25,0,0,1-3.57-2.51q-1.55-1.38-2.82-2.66a16.59,16.59,0,0,0-3.3,3.09q-1.6,1.92-2.34,3ZM322,247.54a13.12,13.12,0,0,0,7.25-1.92,14.91,14.91,0,0,0,4.85-5.11,24.16,24.16,0,0,0,2.72-7.3,42.1,42.1,0,0,0,.85-8.58,29,29,0,0,0-1.55-10.23,19,19,0,0,0-3.84-6.45,12.34,12.34,0,0,0-5-3.3,15.83,15.83,0,0,0-5-.9,14.64,14.64,0,0,0-6.13,1.33,14.13,14.13,0,0,0-5.06,3.89,19.43,19.43,0,0,0-1.81,2.66,18,18,0,0,0-1.49,3.52,29,29,0,0,0-1,4.8,48.42,48.42,0,0,0-.37,6.39,36.82,36.82,0,0,0,.91,8.37,21.11,21.11,0,0,0,2.77,6.77,13.14,13.14,0,0,0,4.79,4.48,14.62,14.62,0,0,0,7.09,1.6"/><path class="cls-1" d="M381,241.47q-1.17-2.88-2.66-6.39t-3-7.19l-3-7.19q-1.49-3.52-2.66-6.39t-1.92-4.74q-.75-1.86-1.49-3.46l-1.55-3.3q-.8-1.7-2-4.16c.92.21,11.4.36,12.47,0q.32,1.07,1.71,4.9t3.3,9q1.92,5.12,4.1,10.87T388.42,234a23.77,23.77,0,0,0,1.12,2.51q.59,1.12,1.12,1.12t2.13-3.68q1.7-3.68,3.94-9.33t4.69-12.57q2.45-6.93,4.37-13.43c.57.14,8.52.14,9,0q-.75,1.17-1.39,2.35t-1.81,3.57q-1.17,2.4-3,6.5t-5.06,11q-.86,1.92-1.76,3.84t-1.86,3.84q-5.44,11.94-10.76,24.14A205.07,205.07,0,0,0,380.22,278a41.88,41.88,0,0,0-8.53,0l6.93-13q3.41-6.39,6.61-13Z"/><path class="cls-1" d="M505.53,195.75a20.51,20.51,0,0,1-1,6.5,18.37,18.37,0,0,1-2.5,5,20.9,20.9,0,0,1-3.36,3.68,36.36,36.36,0,0,1-3.41,2.61,19.84,19.84,0,0,1-4.8,2.24,39.6,39.6,0,0,1-5.49,1.33q-2.83.48-5.65.69t-5.28.21q-1.28,0-2.56-.05t-2.56-.16v9.91q0,4.37.11,8.15t.27,7.35q.16,3.57.37,7.41c-.92-.14-11-.14-11.83,0q.53-11.29.69-22.48t.16-22.49q0-6-.05-10.12t-.16-7.35q-.11-3.2-.27-5.81t-.37-5.49q3.09.22,7.25.27t10.44.05q6.07,0,11.14.32a24.3,24.3,0,0,1,8.9,2.13,16.87,16.87,0,0,1,7.41,6.5,18.23,18.23,0,0,1,2.5,9.59m-11.61,1.07a20.49,20.49,0,0,0-.8-5.81,10.26,10.26,0,0,0-2.82-4.64,15.79,15.79,0,0,0-6.93-3.62,33,33,0,0,0-8.21-1.07c-.85,0-1.85,0-3,.11s-2.2.18-3.2.32q-.11,6.93-.11,14.87t.11,16.36q3.94.11,8.36-.16a23.7,23.7,0,0,0,8.1-1.87,14.28,14.28,0,0,0,6.07-5q2.4-3.41,2.4-9.48"/><path class="cls-1" d="M535.48,222.71c-1.07,2.49-8.14,21.1-9.91,27.92-.64-.14-8.35-.14-9.06,0q2.34-5.12,5.17-11.35c1.88-4.16,16-35.59,17.9-40s3.66-8.54,5.33-12.52,3.14-7.57,4.42-10.76a39.11,39.11,0,0,0,5,0q2,5.65,5.17,13.27t6.71,15.88q3.57,8.26,7.14,16.36t6.39,14.55q2.82,6.45,4.69,10.44t1.86,4.1c-.92-.14-12.11-.14-13.11,0-1.85-6.46-9.41-24.94-10.76-27.92Zm13.32-31.86-11.19,26.43h22.7Z"/><path class="cls-1" d="M659.92,250.63c-1.14-.14-12.47-.14-14,0q-3.84-6-7.19-10.92t-6.55-9.27q-3.2-4.32-6.23-8.1t-6.13-7.41h-2.77q0,5.75.05,14.28t.69,21.42c-.92-.21-11-.14-11.83,0q.42-9.48.59-19.29t.16-21.53q0-7.46-.21-15.66t-.43-17.26q3.09.32,5.33.37t3.94.05h2.5q1.76,0,3.73-.05t3.73-.05h2.4q4.8,0,8,.32a42.08,42.08,0,0,1,5.49.85,15.17,15.17,0,0,1,3.78,1.39,18.13,18.13,0,0,1,2.82,1.92,12.83,12.83,0,0,1,4.26,5.7,20.76,20.76,0,0,1,1.17,7.09,16.47,16.47,0,0,1-2.34,9.27,18.24,18.24,0,0,1-5.65,5.54,24.72,24.72,0,0,1-6.87,2.93q-3.57.91-6,1.33,1,1.49,3.3,4.64t5.27,7q2.93,3.84,6.13,7.89l6,7.57q2.77,3.52,4.64,5.91l2.18,2.82Zm-17.69-55a13.81,13.81,0,0,0-1.76-7.46,12.25,12.25,0,0,0-4.48-4.26,16.86,16.86,0,0,0-6-1.92,47.66,47.66,0,0,0-6.13-.43q-2.35,0-4,.16t-2.72.37q-.21,3.62-.21,7.25V200.6q0,2.19.05,4.26t.05,3.78v2.56a18.45,18.45,0,0,0,2.61.21q1.12,0,3-.11t5.06-.48a20.74,20.74,0,0,0,6.45-1.87,15,15,0,0,0,5.59-4.63q2.4-3.14,2.4-8.69"/><path class="cls-1" d="M780.14,222.71q-1.6,3.73-4.42,10.71a142.06,142.06,0,0,0-5.49,17.21c-.64-.14-8.35-.14-9.06,0q2.34-5.12,5.17-11.35t5.86-12.89q3-6.66,6.13-13.59t5.92-13.48q2.82-6.55,5.33-12.52T794,176a39.12,39.12,0,0,0,5,0q2,5.65,5.17,13.27t6.71,15.88q3.57,8.26,7.14,16.36t6.39,14.55q2.82,6.45,4.69,10.44t1.86,4.1c-.92-.14-12.11-.14-13.11,0-1.85-6.46-9.41-24.94-10.76-27.92Zm13.32-31.86-11.19,26.43H805Z"/><path class="cls-1" d="M738.26,190.34l.77,42.07-52.23-56H682v74.36h10.42a46.33,46.33,0,0,1-1.67-13.43L690,195.48l52.23,55.8H747V176.91H736.6a46.88,46.88,0,0,1,1.66,13.43"/><path class="cls-1" d="M866.58,251.91c14.95,0,25.3-8.37,25.3-21.33,0-10.69-7.82-18.44-21.27-21.95-10.55-2.89-15.47-7.43-15.47-14.17,0-7.33,5.74-12.52,14-12.52,11.12,0,17.8,10.14,18.88,11.9a.08.08,0,0,0,.12,0,.09.09,0,0,0,0-.07V181.17a32.5,32.5,0,0,0-19.24-6c-13.6,0-23.33,8.59-23.33,20.51,0,10.55,7.61,18.33,21.61,22,10.11,2.79,15.13,7.2,15.13,14.18,0,7.84-6.58,13.36-15.34,13.36-12.88,0-21.59-11.59-22.13-12.31h0v12.84a40.19,40.19,0,0,0,21.72,6.13"/></svg>