<svg id="Layer_1" data-name="Layer 1" xmlns="http://www.w3.org/2000/svg" viewBox="0 0 766.3 300.13"><defs><style>.cls-1{fill:none;}</style></defs><title>logo-bl1</title><path d="M180.64,128c24.91,0,42.17-13.95,42.17-35.55,0-17.82-13-30.74-35.44-36.58C169.78,51,161.58,43.45,161.58,32.22c0-12.22,9.58-20.86,23.31-20.86,18.53,0,29.66,16.9,31.46,19.83a.14.14,0,0,0,.26-.08V10.06S204.11-.06,184.54,0c-22.68,0-38.88,14.31-38.88,34.19,0,17.58,12.69,30.56,36,36.74,16.85,4.64,25.22,12,25.22,23.63,0,13.07-11,22.27-25.56,22.27-21.47,0-36-19.32-36.88-20.51h0v21.4a67,67,0,0,0,36.2,10.21" transform="translate(0 0)"/><rect class="cls-1" width="766.3" height="300.13"/></svg>