<svg id="Layer_1" data-name="Layer 1" xmlns="http://www.w3.org/2000/svg" viewBox="0 0 766.5 149.74"><defs><style>.cls-1{fill:none;}</style></defs><title>parnas</title><path d="M120,126.14q.18-3.12.32-6.93t.18-7.71q0-3.9.09-7.81t0-7.21V82.66q0-3.72,0-7.26t-.14-6.2q0-1.47,0-2.71L120.34,64q0-1.24-.14-2.57T120,58.37c.86.12,8.14.37,9.73,0q-.18,2.85-.27,5.05t-.14,4.18q0,2-.09,3.95t-.09,4.5q0,2.53-.09,5.69t-.14,7.58q.64-.92,1.74-2.34a13.86,13.86,0,0,1,2.89-2.71A19.06,19.06,0,0,1,137.88,82a16.87,16.87,0,0,1,6-1,21.92,21.92,0,0,1,7.67,1.38,18.8,18.8,0,0,1,6.61,4.18,20.1,20.1,0,0,1,4.59,7,25.85,25.85,0,0,1,1.7,9.78,29.61,29.61,0,0,1-1.51,9.6,22.17,22.17,0,0,1-4.36,7.67,20.18,20.18,0,0,1-6.93,5.05,22.52,22.52,0,0,1-9.32,1.84,20.9,20.9,0,0,1-5.23-.6,17.44,17.44,0,0,1-4-1.56A16.63,16.63,0,0,1,130,123.2q-1.33-1.19-2.43-2.3a14.31,14.31,0,0,0-2.85,2.66q-1.38,1.65-2,2.57Zm21.67-2.66a11.31,11.31,0,0,0,6.24-1.65,12.85,12.85,0,0,0,4.18-4.41,20.81,20.81,0,0,0,2.34-6.29,36.3,36.3,0,0,0,.73-7.39,25,25,0,0,0-1.33-8.82,16.41,16.41,0,0,0-3.31-5.55,10.63,10.63,0,0,0-4.32-2.85,13.65,13.65,0,0,0-4.27-.78,12.62,12.62,0,0,0-5.28,1.15,12.18,12.18,0,0,0-4.36,3.35,16.8,16.8,0,0,0-1.56,2.3,15.51,15.51,0,0,0-1.28,3,24.8,24.8,0,0,0-.87,4.13,41.65,41.65,0,0,0-.32,5.51,31.75,31.75,0,0,0,.78,7.21,18.19,18.19,0,0,0,2.39,5.83,11.32,11.32,0,0,0,4.13,3.86,12.59,12.59,0,0,0,6.11,1.38"/><path d="M192.47,118.24q-1-2.48-2.3-5.51t-2.62-6.2l-2.62-6.2q-1.29-3-2.3-5.51T181,90.74q-.64-1.61-1.29-3l-1.33-2.85q-.69-1.47-1.7-3.58c.8.18,9.83.31,10.74,0q.28.92,1.47,4.22t2.85,7.71q1.65,4.41,3.54,9.37t3.63,9.18a20.51,20.51,0,0,0,1,2.16q.5,1,1,1t1.84-3.17q1.47-3.17,3.4-8t4-10.84q2.11-6,3.77-11.57c.49.12,7.35.12,7.71,0q-.64,1-1.19,2t-1.56,3.08q-1,2.07-2.62,5.6t-4.36,9.5q-.74,1.65-1.52,3.31t-1.61,3.31q-4.68,10.29-9.27,20.8a176.74,176.74,0,0,0-7.62,20.8,36.11,36.11,0,0,0-7.35,0l6-11.2q2.94-5.51,5.69-11.2Z"/><path d="M299.81,78.85a17.69,17.69,0,0,1-.83,5.6,15.86,15.86,0,0,1-2.16,4.32,18.09,18.09,0,0,1-2.89,3.17A31.39,31.39,0,0,1,291,94.18a17.09,17.09,0,0,1-4.13,1.93,34.19,34.19,0,0,1-4.73,1.15q-2.43.41-4.87.6t-4.55.18q-1.1,0-2.2,0t-2.2-.14v8.54q0,3.77.09,7t.23,6.34q.14,3.08.32,6.38c-.8-.12-9.52-.12-10.19,0q.46-9.73.6-19.37t.14-19.38q0-5.14,0-8.72t-.14-6.34q-.09-2.75-.23-5t-.32-4.73q2.66.18,6.24.23t9,0q5.23,0,9.6.28A20.93,20.93,0,0,1,291.27,65a14.53,14.53,0,0,1,6.38,5.6,15.7,15.7,0,0,1,2.16,8.26m-10,.92a17.67,17.67,0,0,0-.69-5,8.85,8.85,0,0,0-2.43-4,13.61,13.61,0,0,0-6-3.12,28.45,28.45,0,0,0-7.07-.92q-1.1,0-2.57.09t-2.76.28q-.09,6-.09,12.81t.09,14.1q3.4.09,7.21-.14a20.39,20.39,0,0,0,7-1.61,12.3,12.3,0,0,0,5.23-4.32q2.07-2.94,2.07-8.17"/><path d="M325.62,102.08c-.92,2.14-7,18.18-8.54,24.06-.55-.12-7.19-.12-7.8,0q2-4.41,4.45-9.78c1.62-3.58,13.8-30.67,15.43-34.44s3.15-7.36,4.59-10.79,2.71-6.52,3.81-9.27a33.6,33.6,0,0,0,4.32,0q1.74,4.87,4.45,11.43T352.11,87q3.07,7.12,6.15,14.1t5.51,12.53q2.43,5.56,4,9t1.61,3.54c-.8-.12-10.44-.12-11.29,0-1.59-5.57-8.11-21.49-9.28-24.06ZM337.1,74.62l-9.64,22.77H347Z"/><path d="M432.86,126.14c-1-.12-10.74-.12-12,0q-3.31-5.14-6.2-9.41t-5.65-8q-2.76-3.72-5.37-7t-5.28-6.38h-2.39q0,5,0,12.31t.6,18.46c-.8-.18-9.52-.12-10.19,0q.37-8.17.51-16.62T387,91q0-6.43-.18-13.5t-.37-14.88q2.66.27,4.59.32t3.4,0h2.16q1.52,0,3.21,0t3.21,0h2.07q4.13,0,6.93.27a36.19,36.19,0,0,1,4.73.74A13.06,13.06,0,0,1,420,65.07a15.66,15.66,0,0,1,2.43,1.65,11.07,11.07,0,0,1,3.67,4.91,17.89,17.89,0,0,1,1,6.11,14.19,14.19,0,0,1-2,8,15.72,15.72,0,0,1-4.87,4.78A21.3,21.3,0,0,1,414.35,93q-3.08.78-5.19,1.15.83,1.29,2.85,4t4.55,6q2.52,3.3,5.28,6.8l5.14,6.52q2.39,3,4,5.1l1.88,2.43ZM417.61,78.75a11.9,11.9,0,0,0-1.52-6.43,10.55,10.55,0,0,0-3.86-3.67A14.5,14.5,0,0,0,407.1,67a40.9,40.9,0,0,0-5.28-.37q-2,0-3.44.14t-2.34.32q-.18,3.12-.18,6.24V83q0,1.88,0,3.67t0,3.26v2.2a16.07,16.07,0,0,0,2.25.18q1,0,2.62-.09t4.36-.41a17.87,17.87,0,0,0,5.56-1.61,13,13,0,0,0,4.82-4,12.08,12.08,0,0,0,2.07-7.48"/><path d="M536.45,102.08q-1.38,3.21-3.81,9.23a122.57,122.57,0,0,0-4.73,14.83c-.55-.12-7.19-.12-7.81,0q2-4.41,4.45-9.78t5.05-11.11q2.62-5.74,5.28-11.71T540,81.92q2.43-5.65,4.59-10.79t3.81-9.27a33.6,33.6,0,0,0,4.32,0q1.74,4.87,4.45,11.43T562.95,87q3.08,7.12,6.15,14.1t5.51,12.53q2.43,5.56,4,9t1.61,3.54c-.8-.12-10.44-.12-11.3,0-1.59-5.57-8.11-21.49-9.27-24.06Zm11.48-27.46-9.64,22.77h19.56Z"/><path d="M500.36,74.18l.66,36.25L456,62.15h-4.11v64.07h9a40,40,0,0,1-1.44-11.57l-.66-36,45,48.08h4.11V62.61h-9a40.39,40.39,0,0,1,1.43,11.57"/><path d="M610.94,127.24c12.88,0,21.8-7.21,21.8-18.38,0-9.21-6.74-15.89-18.32-18.91-9.1-2.49-13.34-6.4-13.34-12.21,0-6.32,5-10.79,12.05-10.79,9.58,0,15.34,8.74,16.27,10.25a.07.07,0,0,0,.1,0,.07.07,0,0,0,0-.06V66.28A28,28,0,0,0,613,61.08c-11.72,0-20.1,7.4-20.1,17.67,0,9.09,6.56,15.8,18.62,19,8.71,2.4,13,6.2,13,12.22,0,6.76-5.67,11.51-13.22,11.51-11.1,0-18.6-10-19.07-10.61h0v11.06a34.64,34.64,0,0,0,18.72,5.28"/><rect class="cls-1" width="766.5" height="148.83"/></svg>