<svg id="Layer_1" data-name="Layer 1" xmlns="http://www.w3.org/2000/svg" viewBox="0 0 592.3 105.55"><defs><style>.cls-1{fill:#fff;}</style></defs><title>vis-parnas</title><path class="cls-1" d="M360.18,793.74q.21-3.6.37-8t.21-8.91q.05-4.51.11-9t.05-8.33v-16q0-4.3-.05-8.38t-.16-7.16q0-1.7-.05-3.13t-.11-2.86q-.05-1.43-.16-3t-.21-3.55c1,.14,9.4.43,11.24,0q-.21,3.29-.32,5.84t-.16,4.83q-.06,2.28-.11,4.56t-.11,5.2q-.06,2.92-.11,6.58t-.16,8.75q.74-1.06,2-2.7a16,16,0,0,1,3.34-3.13,22,22,0,0,1,5-2.6,19.48,19.48,0,0,1,6.95-1.11,25.33,25.33,0,0,1,8.86,1.59,21.74,21.74,0,0,1,7.64,4.83,23.25,23.25,0,0,1,5.3,8.06,29.88,29.88,0,0,1,2,11.3,34.21,34.21,0,0,1-1.75,11.08,25.65,25.65,0,0,1-5,8.86,23.32,23.32,0,0,1-8,5.83A26,26,0,0,1,386,795.33a24.07,24.07,0,0,1-6-.69,20.12,20.12,0,0,1-4.67-1.8,19.19,19.19,0,0,1-3.55-2.49q-1.54-1.38-2.81-2.65a16.5,16.5,0,0,0-3.29,3.08q-1.59,1.91-2.33,3Zm25-3.08a13.06,13.06,0,0,0,7.21-1.91,14.85,14.85,0,0,0,4.83-5.09A24.08,24.08,0,0,0,400,776.4a41.94,41.94,0,0,0,.85-8.54,28.9,28.9,0,0,0-1.54-10.18,19,19,0,0,0-3.82-6.42,12.29,12.29,0,0,0-5-3.29,15.77,15.77,0,0,0-4.93-.9,14.58,14.58,0,0,0-6.1,1.33,14.06,14.06,0,0,0-5,3.87,19.27,19.27,0,0,0-1.8,2.65,17.88,17.88,0,0,0-1.48,3.5,28.72,28.72,0,0,0-1,4.77,48.16,48.16,0,0,0-.37,6.37,36.61,36.61,0,0,0,.9,8.33,21,21,0,0,0,2.76,6.74,13.08,13.08,0,0,0,4.77,4.46,14.54,14.54,0,0,0,7.06,1.59" transform="translate(-360.18 -715.45)"/><path class="cls-1" d="M443.88,784.62q-1.17-2.86-2.65-6.36t-3-7.16q-1.54-3.66-3-7.16t-2.65-6.37q-1.17-2.86-1.91-4.72t-1.49-3.45l-1.54-3.29q-.8-1.7-2-4.14c.92.21,11.35.35,12.41,0q.32,1.06,1.7,4.88t3.29,8.91q1.91,5.09,4.08,10.82t4.19,10.61a23.85,23.85,0,0,0,1.11,2.49q.58,1.11,1.11,1.11t2.12-3.66q1.7-3.66,3.92-9.28t4.67-12.52q2.44-6.89,4.35-13.37c.56.14,8.49.14,8.91,0q-.74,1.17-1.38,2.33t-1.8,3.55q-1.17,2.39-3,6.47t-5,11q-.85,1.91-1.75,3.82T462.65,773q-5.41,11.88-10.71,24a204.33,204.33,0,0,0-8.8,24,41.72,41.72,0,0,0-8.49,0l6.89-12.94q3.39-6.36,6.58-12.94Z" transform="translate(-360.18 -715.45)"/><path class="cls-1" d="M567.88,739.11a20.42,20.42,0,0,1-1,6.47,18.34,18.34,0,0,1-2.49,5,20.86,20.86,0,0,1-3.34,3.66,36.24,36.24,0,0,1-3.39,2.6,19.76,19.76,0,0,1-4.77,2.23,39.54,39.54,0,0,1-5.46,1.33q-2.81.48-5.62.69t-5.25.21c-.85,0-1.7,0-2.55-.05s-1.7-.09-2.55-.16v9.87q0,4.35.11,8.12t.27,7.32q.16,3.55.37,7.37c-.92-.14-11-.14-11.78,0q.53-11.24.69-22.38t.16-22.38q0-5.94-.05-10.08t-.16-7.32q-.11-3.18-.26-5.78t-.37-5.46q3.07.21,7.21.26t10.4.05q6,0,11.09.32a24.17,24.17,0,0,1,8.86,2.12,16.78,16.78,0,0,1,7.37,6.47,18.15,18.15,0,0,1,2.49,9.55m-11.56,1.06a20.42,20.42,0,0,0-.8-5.78,10.21,10.21,0,0,0-2.81-4.61,15.73,15.73,0,0,0-6.89-3.61,32.86,32.86,0,0,0-8.17-1.06q-1.27,0-3,.11t-3.18.32q-.11,6.9-.11,14.8t.11,16.28q3.92.11,8.33-.16a23.6,23.6,0,0,0,8.06-1.86,14.21,14.21,0,0,0,6-5q2.39-3.39,2.39-9.44" transform="translate(-360.18 -715.45)"/><path class="cls-1" d="M597.69,765.95c-1.06,2.48-8.1,21-9.86,27.79-.64-.14-8.31-.14-9,0q2.33-5.09,5.14-11.3c1.87-4.14,15.95-35.43,17.82-39.78s3.64-8.5,5.3-12.46,3.13-7.53,4.4-10.71a38.94,38.94,0,0,0,5,0q2,5.62,5.14,13.21t6.68,15.81q3.55,8.22,7.11,16.28t6.36,14.48q2.81,6.42,4.67,10.4t1.86,4.08c-.92-.14-12.06-.14-13,0-1.84-6.43-9.37-24.82-10.71-27.79Zm13.26-31.72-11.14,26.31H622.4Z" transform="translate(-360.18 -715.45)"/><path class="cls-1" d="M721.57,793.74c-1.13-.14-12.41-.14-13.9,0q-3.82-5.94-7.16-10.87T694,773.64q-3.18-4.3-6.21-8.06t-6.1-7.37h-2.76q0,5.73.05,14.21t.69,21.32c-.92-.21-11-.14-11.77,0q.42-9.44.58-19.2t.16-21.43q0-7.42-.21-15.59T668,720.34q3.07.32,5.3.37t3.92.05h2.49q1.75,0,3.71-.05t3.71-.05h2.39q4.77,0,8,.32a42,42,0,0,1,5.46.85,15.11,15.11,0,0,1,3.77,1.38,18.14,18.14,0,0,1,2.81,1.91,12.78,12.78,0,0,1,4.24,5.68,20.67,20.67,0,0,1,1.17,7.05,16.39,16.39,0,0,1-2.33,9.23,18.15,18.15,0,0,1-5.62,5.52,24.6,24.6,0,0,1-6.84,2.92q-3.55.9-6,1.33,1,1.49,3.29,4.61t5.25,6.95q2.92,3.82,6.1,7.85l5.94,7.53q2.76,3.5,4.61,5.89l2.17,2.81ZM704,739a13.75,13.75,0,0,0-1.75-7.43,12.2,12.2,0,0,0-4.46-4.24,16.8,16.8,0,0,0-5.94-1.91,47.38,47.38,0,0,0-6.1-.42q-2.33,0-4,.16t-2.71.37q-.21,3.61-.21,7.21v11.19q0,2.18.05,4.24t.05,3.77v2.55a18.45,18.45,0,0,0,2.6.21q1.11,0,3-.11t5-.48a20.64,20.64,0,0,0,6.42-1.86,15,15,0,0,0,5.57-4.61Q704,744.52,704,739" transform="translate(-360.18 -715.45)"/><path class="cls-1" d="M841.25,765.95q-1.59,3.71-4.4,10.66a141.28,141.28,0,0,0-5.46,17.13c-.64-.14-8.31-.14-9,0q2.33-5.09,5.14-11.3t5.84-12.83q3-6.63,6.1-13.53t5.89-13.42q2.81-6.52,5.3-12.46t4.4-10.71a38.94,38.94,0,0,0,5,0q2,5.62,5.14,13.21t6.68,15.81q3.55,8.22,7.11,16.28t6.36,14.48q2.81,6.42,4.67,10.4t1.86,4.08c-.92-.14-12.06-.14-13,0-1.84-6.43-9.37-24.82-10.71-27.79Zm13.26-31.72-11.14,26.31H866Z" transform="translate(-360.18 -715.45)"/><path class="cls-1" d="M799.55,733.72l.77,41.88-52-55.77h-4.75v74h10.37a46.1,46.1,0,0,1-1.67-13.37l-.77-41.64,52,55.54h4.75v-74H797.9a46.67,46.67,0,0,1,1.66,13.37" transform="translate(-360.18 -715.45)"/><path class="cls-1" d="M927.29,795c14.88,0,25.19-8.33,25.19-21.23,0-10.64-7.79-18.36-21.17-21.85-10.51-2.87-15.4-7.4-15.4-14.1,0-7.3,5.72-12.46,13.92-12.46,11.07,0,17.72,10.09,18.79,11.85a.08.08,0,0,0,.15,0V724.6a32.35,32.35,0,0,0-19.15-6c-13.54,0-23.22,8.55-23.22,20.42,0,10.5,7.58,18.25,21.51,21.95C938,763.73,943,768.12,943,775.07c0,7.81-6.55,13.3-15.27,13.3-12.82,0-21.49-11.54-22-12.25h0v12.78a40,40,0,0,0,21.62,6.1" transform="translate(-360.18 -715.45)"/></svg>