<svg id="Layer_1" data-name="Layer 1" xmlns="http://www.w3.org/2000/svg" viewBox="0 0 84 114.5"><defs><style>.cls-1{fill:#000;}.cls-2{fill:none;}</style></defs><title>vis-txt1</title><path class="cls-1" d="M32.4,114.45c22.28,0,37.72-12.48,37.72-31.79,0-15.94-11.65-27.5-31.69-32.72-15.75-4.3-23.08-11.08-23.08-21.13,0-10.93,8.57-18.65,20.86-18.65,16.57,0,26.54,15.11,28.14,17.73a.12.12,0,0,0,.23-.07V9A48.39,48.39,0,0,0,35.89,0C15.6,0,1.12,12.79,1.12,30.57c0,15.73,11.36,27.33,32.21,32.88C48.4,67.59,55.88,74.17,55.88,84.57c0,11.7-9.81,19.93-22.86,19.93C13.82,104.5.83,87.21,0,86.14c0,0,0,0,0,0v19.15a60,60,0,0,0,32.39,9.14" transform="translate(0)"/><rect class="cls-2" width="84" height="114.5"/></svg>